<svg xmlns="http://www.w3.org/2000/svg" width="36.797" height="33.993" viewBox="0 0 36.797 33.993">
  <g id="그룹_89" data-name="그룹 89" transform="translate(0)">
    <g id="그룹_85" data-name="그룹 85" transform="translate(0)">
      <path id="패스_4" data-name="패스 4" d="M775.108,551.192c.036,8.246-4.376,14.418-10.9,15.9-8.093,1.838-15.38-1.384-18.659-8.25a15.423,15.423,0,0,1,4.74-19.251,55.444,55.444,0,0,0,4.84-3.9c2.1-2.043,7.3-3.023,9.075-.846,2.4,2.943,5.814,4.739,8.059,7.741C774.32,545.33,775.509,548.351,775.108,551.192Z" transform="translate(-743.963 -533.608)" fill="#ed5351"/>
      <path id="패스_11" data-name="패스 11" d="M749.709,553.466a10.652,10.652,0,0,1,10.877-10.742,10.9,10.9,0,1,1-.278,21.782A10.724,10.724,0,0,1,749.709,553.466Z" transform="translate(-744.879 -535.061)" fill="#fefdfd"/>
      <path id="패스_14" data-name="패스 14" d="M765.648,555.613c.258,2.5.266,4.776-3.283,4.718-2.379-.038-4.265-.591-3.689-3.462.567-2.834-.741-7.272,3.622-7.522C766.07,549.13,765.457,553.007,765.648,555.613Z" transform="translate(-746.291 -536.115)" fill="#3a3a3c"/>
      <path id="패스_15" data-name="패스 15" d="M754.169,552.614c.806-.04,1.358.3,1.4,1.12.034.737-.268,1.372-1.119,1.432a1.279,1.279,0,0,1-1.43-1.173C752.868,553.136,753.415,552.774,754.169,552.614Z" transform="translate(-745.402 -536.636)" fill="#4c4c4d"/>
      <path id="패스_16" data-name="패스 16" d="M772,553.877c-.229.634-.465,1.306-1.3,1.315a1.306,1.306,0,0,1-1.427-1.516,1.2,1.2,0,0,1,1.422-1.091C771.5,552.63,771.849,553.172,772,553.877Z" transform="translate(-747.997 -536.632)" fill="#545455"/>
    </g>
    <g id="그룹_88" data-name="그룹 88" transform="translate(19.183 13.114)">
      <path id="패스_79" data-name="패스 79" d="M1654.551,547.408a3.049,3.049,0,0,1-3.046-3.046v-3.477a3.046,3.046,0,0,1,6.093,0v3.477A3.05,3.05,0,0,1,1654.551,547.408Zm0-8.112a1.591,1.591,0,0,0-1.589,1.589v3.477a1.589,1.589,0,0,0,3.178,0v-3.477A1.591,1.591,0,0,0,1654.551,539.3Z" transform="translate(-1639.983 -536.435)" fill="#ffdbd9"/>
      <path id="패스_80" data-name="패스 80" d="M1631.684,539.986v6.952a10.5,10.5,0,0,1-10.49,10.49.729.729,0,0,1,0-1.457,9.043,9.043,0,0,0,9.032-9.032v-6.952" transform="translate(-1618.995 -537.886)" fill="#ffdbd9"/>
      <g id="그룹_86" data-name="그룹 86" transform="translate(10.028)">
        <path id="패스_81" data-name="패스 81" d="M1652.71,544.889a1.783,1.783,0,0,1-1.783,1.783h0a1.783,1.783,0,0,1-1.783-1.783v-7.354a1.783,1.783,0,0,1,1.783-1.783h0a1.783,1.783,0,0,1,1.783,1.783Z" transform="translate(-1648.415 -535.023)" fill="#282836"/>
        <path id="패스_82" data-name="패스 82" d="M1649.405,545.879a2.514,2.514,0,0,1-2.511-2.512v-7.354a2.511,2.511,0,1,1,5.023,0v7.354A2.514,2.514,0,0,1,1649.405,545.879Zm0-10.92a1.056,1.056,0,0,0-1.054,1.055v7.354a1.054,1.054,0,1,0,2.109,0v-7.354A1.056,1.056,0,0,0,1649.405,534.959Z" transform="translate(-1646.894 -533.502)" fill="#ffdbd9"/>
      </g>
      <g id="그룹_87" data-name="그룹 87" transform="translate(0 16.48)">
        <path id="패스_83" data-name="패스 83" d="M1621.115,588.118a1.471,1.471,0,1,0-1.471,1.471A1.471,1.471,0,0,0,1621.115,588.118Z" transform="translate(-1617.444 -585.918)" fill="#282836"/>
        <path id="패스_84" data-name="패스 84" d="M1618.122,588.8a2.2,2.2,0,1,1,2.2-2.2A2.2,2.2,0,0,1,1618.122,588.8Zm0-2.942a.742.742,0,1,0,.742.742A.743.743,0,0,0,1618.122,585.854Z" transform="translate(-1615.923 -584.397)" fill="#ffdbd9"/>
      </g>
    </g>
  </g>
</svg>
