<svg id="그룹_1902" data-name="그룹 1902" xmlns="http://www.w3.org/2000/svg" xmlns:xlink="http://www.w3.org/1999/xlink" width="29.653" height="26.539" viewBox="0 0 29.653 26.539">
  <defs>
    <clipPath id="clip-path">
      <rect id="사각형_1916" data-name="사각형 1916" width="29.653" height="26.539" fill="none"/>
    </clipPath>
  </defs>
  <g id="그룹_1901" data-name="그룹 1901" transform="translate(0 0)" clip-path="url(#clip-path)">
    <path id="패스_23080" data-name="패스 23080" d="M47.074,54.923H43.035a.626.626,0,1,1,0-1.252h4.039a4.4,4.4,0,0,0,4.394-4.394V48.248a.626.626,0,0,1,1.252,0v1.029a5.653,5.653,0,0,1-5.646,5.646" transform="translate(-29.131 -32.712)" fill="#696666"/>
    <rect id="사각형_1914" data-name="사각형 1914" width="9.338" height="3.345" transform="translate(15.298 11.955)" fill="#fff"/>
    <path id="패스_23081" data-name="패스 23081" d="M56.824,40.781H47.485a.626.626,0,0,1-.626-.626V36.81a.626.626,0,0,1,.626-.626h9.339a.626.626,0,0,1,.626.626v3.345a.626.626,0,0,1-.626.626m-8.713-1.252H56.2V37.436H48.111Z" transform="translate(-32.188 -24.855)" fill="#696666"/>
    <path id="패스_23082" data-name="패스 23082" d="M57.281,25.719H49.336l-1.812,4.39H61.672Z" transform="translate(-32.645 -17.666)" fill="#fff"/>
    <path id="패스_23083" data-name="패스 23083" d="M60.3,29.362H46.151a.626.626,0,0,1-.579-.865l1.812-4.39a.626.626,0,0,1,.579-.387h7.945a.626.626,0,0,1,.443.183l4.391,4.391a.626.626,0,0,1-.443,1.069M47.087,28.109h11.7l-3.138-3.138H48.382Z" transform="translate(-31.271 -16.293)" fill="#696666"/>
    <path id="패스_23084" data-name="패스 23084" d="M19.42,2H8.319A2.027,2.027,0,0,0,6.293,4.026V24.848H21.446V4.026A2.026,2.026,0,0,0,19.42,2" transform="translate(-4.323 -1.374)" fill="#fff"/>
    <path id="패스_23085" data-name="패스 23085" d="M20.072,24.1H4.919a.626.626,0,0,1-.626-.626V2.653A2.656,2.656,0,0,1,6.946,0h11.1A2.655,2.655,0,0,1,20.7,2.653V23.474a.626.626,0,0,1-.626.626M5.545,22.848h13.9V2.653a1.4,1.4,0,0,0-1.4-1.4H6.946a1.4,1.4,0,0,0-1.4,1.4Z" transform="translate(-2.949 0)" fill="#696666"/>
    <path id="패스_23086" data-name="패스 23086" d="M17.815,72.881H4.026A2.026,2.026,0,0,0,2,74.907v1.067H19.841V74.907a2.026,2.026,0,0,0-2.026-2.026" transform="translate(-1.374 -50.062)" fill="#fff"/>
    <path id="패스_23087" data-name="패스 23087" d="M18.467,75.227H.626A.626.626,0,0,1,0,74.6V73.534a2.655,2.655,0,0,1,2.652-2.653H16.442a2.655,2.655,0,0,1,2.652,2.653V74.6a.626.626,0,0,1-.626.626M1.252,73.975H17.841v-.441a1.4,1.4,0,0,0-1.4-1.4H2.652a1.4,1.4,0,0,0-1.4,1.4Z" transform="translate(0 -48.688)" fill="#696666"/>
    <rect id="사각형_1915" data-name="사각형 1915" width="9.478" height="3.624" transform="translate(4.808 3.731)" fill="#fff"/>
    <path id="패스_23088" data-name="패스 23088" d="M23.461,14.794H13.983a.626.626,0,0,1-.626-.626V10.544a.626.626,0,0,1,.626-.626h9.478a.626.626,0,0,1,.626.626v3.624a.626.626,0,0,1-.626.626m-8.852-1.252h8.225V11.17H14.609Z" transform="translate(-9.175 -6.813)" fill="#ed5351"/>
  </g>
</svg>
