<svg id="그룹_1629" data-name="그룹 1629" xmlns="http://www.w3.org/2000/svg" xmlns:xlink="http://www.w3.org/1999/xlink" width="41.683" height="39.882" viewBox="0 0 41.683 39.882">
  <defs>
    <clipPath id="clip-path">
      <rect id="사각형_1456" data-name="사각형 1456" width="41.683" height="39.882" fill="none"/>
    </clipPath>
  </defs>
  <g id="그룹_1623" data-name="그룹 1623" transform="translate(0 0)" clip-path="url(#clip-path)">
    <path id="패스_22696" data-name="패스 22696" d="M34.988,44.928H6.7a6.7,6.7,0,0,1-6.7-6.7V9.96a.985.985,0,0,1,.985-.985H40.7a.985.985,0,0,1,.985.985V38.232a6.7,6.7,0,0,1-6.7,6.7M1.97,10.945V38.232A4.731,4.731,0,0,0,6.7,42.957H34.988a4.731,4.731,0,0,0,4.725-4.725V10.945Z" transform="translate(0 -5.046)" fill="#3e3a39"/>
    <path id="패스_22697" data-name="패스 22697" d="M12.089,5.473a.985.985,0,0,1-.985-.985V.985a.985.985,0,1,1,1.97,0v3.5a.985.985,0,0,1-.985.985" transform="translate(-6.243 0)" fill="#3e3a39"/>
    <path id="패스_22698" data-name="패스 22698" d="M26.089,5.473a.985.985,0,0,1-.985-.985V.985a.985.985,0,1,1,1.97,0v3.5a.985.985,0,0,1-.985.985" transform="translate(-14.113 0)" fill="#3e3a39"/>
    <path id="패스_22699" data-name="패스 22699" d="M66.589,5.473a.985.985,0,0,1-.985-.985V.985a.985.985,0,1,1,1.97,0v3.5a.985.985,0,0,1-.985.985" transform="translate(-36.882 0)" fill="#3e3a39"/>
    <path id="패스_22700" data-name="패스 22700" d="M80.589,5.473a.985.985,0,0,1-.985-.985V.985a.985.985,0,1,1,1.97,0v3.5a.985.985,0,0,1-.985.985" transform="translate(-44.753 0)" fill="#3e3a39"/>
    <path id="패스_22701" data-name="패스 22701" d="M45.241,50.068a8.318,8.318,0,1,0-8.318,8.318,8.318,8.318,0,0,0,8.318-8.318" transform="translate(-16.081 -28.249)" fill="#ed5351"/>
    <path id="패스_22702" data-name="패스 22702" d="M39.9,61.9a.982.982,0,0,1-.7-.289l-2.736-2.736a.985.985,0,0,1,1.393-1.393l2.04,2.04,4.229-4.229a.985.985,0,1,1,1.393,1.393L40.6,61.607a.982.982,0,0,1-.7.289" transform="translate(-20.34 -35.698)" fill="#fff"/>
    <path id="패스_22703" data-name="패스 22703" d="M35.657,58.107a9.3,9.3,0,0,1,0-18.607.985.985,0,0,1,0,1.97A7.333,7.333,0,1,0,42.991,48.8a.985.985,0,1,1,1.97,0,9.314,9.314,0,0,1-9.3,9.3" transform="translate(-14.816 -26.984)" fill="#3e3a39"/>
    <path id="패스_22704" data-name="패스 22704" d="M54.139,41.773a1.021,1.021,0,1,0-1.021,1.022,1.021,1.021,0,0,0,1.021-1.022" transform="translate(-29.288 -27.688)" fill="#3e3a39"/>
  </g>
</svg>
