<svg id="그룹_1905" data-name="그룹 1905" xmlns="http://www.w3.org/2000/svg" xmlns:xlink="http://www.w3.org/1999/xlink" width="38.06" height="20.641" viewBox="0 0 38.06 20.641">
  <defs>
    <clipPath id="clip-path">
      <rect id="사각형_1918" data-name="사각형 1918" width="38.06" height="20.641" fill="none"/>
    </clipPath>
  </defs>
  <rect id="사각형_1917" data-name="사각형 1917" width="7.837" height="1.529" transform="translate(16.245 15.739)" fill="#484948"/>
  <g id="그룹_1904" data-name="그룹 1904" transform="translate(0 0)">
    <g id="그룹_1903" data-name="그룹 1903" clip-path="url(#clip-path)">
      <path id="패스_23089" data-name="패스 23089" d="M37.3,17.268H34.056V15.739H36.53V10.567a2.229,2.229,0,0,0-.7-1.622A19.823,19.823,0,0,1,33.7,6.729,29.089,29.089,0,0,1,32.048,3.95a4.682,4.682,0,0,0-4.1-2.421H15.472a4.689,4.689,0,0,0-3.559,1.635C8.5,7.138,7.94,7.376,7.672,7.491c-.442.189-1.846.593-4.173,1.2a2.638,2.638,0,0,0-1.97,2.551v4.5h3.9v1.529H.765A.765.765,0,0,1,0,16.5V11.242a4.168,4.168,0,0,1,3.113-4.03C6.179,6.412,6.9,6.157,7.07,6.086c.087-.048.746-.5,3.684-3.918A6.216,6.216,0,0,1,15.472,0H27.943a6.212,6.212,0,0,1,5.443,3.212,27.11,27.11,0,0,0,1.54,2.6,19.055,19.055,0,0,0,1.944,2.017,3.764,3.764,0,0,1,1.189,2.739V16.5a.765.765,0,0,1-.765.765" transform="translate(0 0)" fill="#696666"/>
      <path id="패스_23090" data-name="패스 23090" d="M24.436,8.975H14.461V7.956h9.533l.349-2.447a.935.935,0,0,0-.926-1.068H18.865V3.422h4.551a1.955,1.955,0,0,1,1.935,2.232L24.94,8.538a.51.51,0,0,1-.5.437" transform="translate(-7.09 -1.678)" fill="#696666"/>
      <path id="패스_23091" data-name="패스 23091" d="M16.83,33.034a3.878,3.878,0,1,1,3.878-3.878,3.882,3.882,0,0,1-3.878,3.878m0-6.736a2.859,2.859,0,1,0,2.858,2.859A2.861,2.861,0,0,0,16.83,26.3" transform="translate(-6.351 -12.393)" fill="#ed5351"/>
      <path id="패스_23092" data-name="패스 23092" d="M53.935,33.034a3.878,3.878,0,1,1,3.877-3.878,3.882,3.882,0,0,1-3.877,3.878m0-6.736a2.859,2.859,0,1,0,2.858,2.859A2.861,2.861,0,0,0,53.935,26.3" transform="translate(-24.543 -12.393)" fill="#ed5351"/>
    </g>
  </g>
</svg>
