<svg id="그룹_1631" data-name="그룹 1631" xmlns="http://www.w3.org/2000/svg" xmlns:xlink="http://www.w3.org/1999/xlink" width="45.559" height="43" viewBox="0 0 45.559 43">
  <defs>
    <clipPath id="clip-path">
      <rect id="사각형_1454" data-name="사각형 1454" width="45.559" height="43" fill="none"/>
    </clipPath>
  </defs>
  <rect id="사각형_1453" data-name="사각형 1453" width="38.736" height="5.332" transform="translate(4.941 6.753)" fill="#3e3a39"/>
  <g id="그룹_1621" data-name="그룹 1621" transform="translate(0 0)">
    <g id="그룹_1620" data-name="그룹 1620" clip-path="url(#clip-path)">
      <path id="패스_22687" data-name="패스 22687" d="M44.774,31.974H10.51a4.123,4.123,0,0,1-4.119-4.118V4.118A4.123,4.123,0,0,1,10.51,0H44.774a4.122,4.122,0,0,1,4.118,4.118V27.856a4.122,4.122,0,0,1-4.118,4.118M10.51,2.153A1.967,1.967,0,0,0,8.544,4.118V27.856a1.967,1.967,0,0,0,1.965,1.964H44.774a1.967,1.967,0,0,0,1.965-1.964V4.118a1.967,1.967,0,0,0-1.965-1.964Z" transform="translate(-3.333 0)" fill="#3e3a39"/>
      <path id="패스_22690" data-name="패스 22690" d="M26.855,35.807H18.672a1.077,1.077,0,0,1,0-2.153h8.184a1.077,1.077,0,0,1,0,2.153" transform="translate(-9.176 -17.55)" fill="#3e3a39"/>
      <path id="패스_22691" data-name="패스 22691" d="M44.461,35.807h-1.6a1.077,1.077,0,0,1,0-2.153h1.6a1.077,1.077,0,0,1,0,2.153" transform="translate(-21.792 -17.55)" fill="#3e3a39"/>
      <path id="패스_22692" data-name="패스 22692" d="M19.688,59.889a8.719,8.719,0,1,0-8.719,8.719,8.719,8.719,0,0,0,8.719-8.719" transform="translate(-1.173 -26.684)" fill="#ed5351"/>
      <path id="패스_22693" data-name="패스 22693" d="M9.8,68.511a9.8,9.8,0,1,1,9.8-9.8,9.807,9.807,0,0,1-9.8,9.8m0-17.438a7.642,7.642,0,1,0,7.642,7.642A7.651,7.651,0,0,0,9.8,51.073" transform="translate(0 -25.511)" fill="#ed5351"/>
      <path id="패스_22694" data-name="패스 22694" d="M13.706,69.053a1.077,1.077,0,0,1-.761-1.838L18.3,61.864a1.076,1.076,0,0,1,1.522,1.522l-5.351,5.352a1.074,1.074,0,0,1-.761.315" transform="translate(-6.586 -32.097)" fill="#fff"/>
      <path id="패스_22695" data-name="패스 22695" d="M19.058,69.053a1.074,1.074,0,0,1-.762-.315l-5.351-5.352a1.076,1.076,0,0,1,1.522-1.522l5.352,5.351a1.077,1.077,0,0,1-.761,1.838" transform="translate(-6.586 -32.097)" fill="#fff"/>
    </g>
  </g>
</svg>
