<svg id="그룹_1630" data-name="그룹 1630" xmlns="http://www.w3.org/2000/svg" xmlns:xlink="http://www.w3.org/1999/xlink" width="42.044" height="42.045" viewBox="0 0 42.044 42.045">
  <defs>
    <clipPath id="clip-path">
      <rect id="사각형_1452" data-name="사각형 1452" width="42.044" height="42.045" fill="none"/>
    </clipPath>
  </defs>
  <g id="그룹_1618" data-name="그룹 1618" transform="translate(13.792 15.075)">
    <path id="패스_22656" data-name="패스 22656" d="M42.559,23.726A1.072,1.072,0,0,1,41.544,23l-1.509-4.474L38.527,23A1.072,1.072,0,0,1,36.5,23l-3.287-9.75a1.072,1.072,0,1,1,2.031-.685L37.511,19.3l1.508-4.474a1.072,1.072,0,0,1,2.031,0L42.559,19.3l2.272-6.738a1.072,1.072,0,1,1,2.031.685L43.575,23a1.072,1.072,0,0,1-1.015.729" transform="translate(-32.328 -11.832)" fill="#ed5351"/>
    <path id="패스_22657" data-name="패스 22657" d="M34.735,25.587H32.492a1.072,1.072,0,0,1,0-2.143h2.243a1.072,1.072,0,0,1,0,2.143" transform="translate(-31.42 -17.913)" fill="#ed5351"/>
    <path id="패스_22658" data-name="패스 22658" d="M57.893,25.587H55.65a1.072,1.072,0,0,1,0-2.143h2.243a1.072,1.072,0,0,1,0,2.143" transform="translate(-43.548 -17.913)" fill="#ed5351"/>
  </g>
  <g id="그룹_1617" data-name="그룹 1617" transform="translate(0 0)">
    <g id="그룹_1616" data-name="그룹 1616" clip-path="url(#clip-path)">
      <path id="패스_22681" data-name="패스 22681" d="M21.022,42.045A21.022,21.022,0,0,1,21.022,0,20.883,20.883,0,0,1,35.887,6.158a.994.994,0,0,1-1.406,1.405A19.035,19.035,0,0,0,7.562,34.483a18.911,18.911,0,0,0,13.46,5.575.994.994,0,0,1,0,1.987" fill="#3e3a39"/>
      <path id="패스_22682" data-name="패스 22682" d="M46.348,92.695a.994.994,0,0,1,0-1.987h.209a1,1,0,0,1,1.005.982.994.994,0,0,1-.982,1.005Z" transform="translate(-25.326 -50.65)" fill="#3e3a39"/>
      <path id="패스_22683" data-name="패스 22683" d="M53.743,71.251a.993.993,0,0,1-.16-1.974c.137-.023.273-.047.409-.072a.994.994,0,0,1,.366,1.953c-.15.028-.3.054-.451.079a.974.974,0,0,1-.163.013m3.383-.864a.994.994,0,0,1-.329-1.932q.2-.069.39-.142a.994.994,0,0,1,.7,1.86q-.215.081-.432.157a.994.994,0,0,1-.329.056m3.18-1.443a.994.994,0,0,1-.489-1.859c.121-.068.24-.137.359-.208a.993.993,0,1,1,1.016,1.708c-.132.079-.265.155-.4.231a.987.987,0,0,1-.487.128m2.879-1.973a.994.994,0,0,1-.631-1.762q.16-.131.318-.267a.994.994,0,0,1,1.294,1.509q-.174.15-.352.295a.99.99,0,0,1-.629.225m2.494-2.44a.994.994,0,0,1-.753-1.641q.135-.157.267-.318a.993.993,0,0,1,1.535,1.262q-.145.178-.295.351a.991.991,0,0,1-.754.346M67.712,61.7a.994.994,0,0,1-.854-1.5c.071-.119.14-.239.208-.359a.994.994,0,1,1,1.73.977c-.075.132-.151.264-.229.4a.993.993,0,0,1-.855.487m1.512-3.142a.994.994,0,0,1-.929-1.345q.072-.193.141-.388a.994.994,0,0,1,1.875.66q-.076.217-.157.43a.994.994,0,0,1-.93.643m.941-3.359a1.05,1.05,0,0,1-.184-.017.994.994,0,0,1-.794-1.16c.025-.136.049-.271.072-.408a.993.993,0,1,1,1.961.322q-.037.227-.079.452a.994.994,0,0,1-.975.811" transform="translate(-29.456 -29.471)" fill="#3e3a39"/>
      <path id="패스_22684" data-name="패스 22684" d="M91.7,47.562h-.012a.993.993,0,0,1-.982-1v-.21a.994.994,0,1,1,1.987,0v.233a.994.994,0,0,1-.994.982" transform="translate(-50.65 -25.325)" fill="#3e3a39"/>
      <path id="패스_22685" data-name="패스 22685" d="M76.694,13.41H72.856a.994.994,0,0,1,0-1.987H75.7V8.578a.994.994,0,1,1,1.987,0v3.839a.994.994,0,0,1-.994.994" transform="translate(-40.128 -4.235)" fill="#3e3a39"/>
      <path id="패스_22686" data-name="패스 22686" d="M28.526,43.614a15.088,15.088,0,0,1,0-30.176.994.994,0,0,1,0,1.987,13.1,13.1,0,1,0,13.1,13.1.994.994,0,1,1,1.987,0A15.105,15.105,0,0,1,28.526,43.614" transform="translate(-7.504 -7.504)" fill="#3e3a39"/>
    </g>
  </g>
</svg>
