<svg id="그룹_1627" data-name="그룹 1627" xmlns="http://www.w3.org/2000/svg" xmlns:xlink="http://www.w3.org/1999/xlink" width="45.971" height="36.593" viewBox="0 0 45.971 36.593">
  <defs>
    <clipPath id="clip-path">
      <rect id="사각형_1457" data-name="사각형 1457" width="45.971" height="36.593" fill="none"/>
    </clipPath>
  </defs>
  <path id="패스_22705" data-name="패스 22705" d="M39.256,26.954l1.692,6.852,1.015,1.1L46.7,29.83Z" transform="translate(-20.301 -13.939)" fill="#ed5351"/>
  <g id="그룹_1626" data-name="그룹 1626" transform="translate(0 0)">
    <g id="그룹_1625" data-name="그룹 1625" clip-path="url(#clip-path)">
      <path id="패스_22706" data-name="패스 22706" d="M39.913,68.136H6.058A6.064,6.064,0,0,1,0,62.078a1.086,1.086,0,0,1,1.086-1.086h43.8a1.087,1.087,0,0,1,1.086,1.086,6.065,6.065,0,0,1-6.058,6.057M2.327,63.165a3.892,3.892,0,0,0,3.73,2.8H39.913a3.891,3.891,0,0,0,3.73-2.8Z" transform="translate(0 -31.542)" fill="#3e3a39"/>
      <path id="패스_22707" data-name="패스 22707" d="M45.085,30.9A1.087,1.087,0,0,1,44,29.816V2.173H8.027V29.816a1.086,1.086,0,0,1-2.173,0V1.086A1.087,1.087,0,0,1,6.94,0H45.085a1.087,1.087,0,0,1,1.086,1.086V29.816A1.087,1.087,0,0,1,45.085,30.9" transform="translate(-3.027 0)" fill="#3e3a39"/>
      <path id="패스_22708" data-name="패스 22708" d="M39.895,35.468c-.031,0-.062,0-.093,0a1.086,1.086,0,0,1-.94-.743l-3.046-9.262a1.087,1.087,0,0,1,1.372-1.372l9.262,3.045a1.087,1.087,0,0,1,.17,1.992l-3.766,2-2,3.766a1.088,1.088,0,0,1-.959.577m-1.342-8.645,1.578,4.8.961-1.81a1.088,1.088,0,0,1,.45-.45l1.81-.961Z" transform="translate(-18.495 -12.429)" fill="#3e3a39"/>
      <path id="패스_22709" data-name="패스 22709" d="M50.812,40.169a1.085,1.085,0,0,1-.769-.318l-1.9-1.9a1.086,1.086,0,1,1,1.536-1.536l1.9,1.9a1.086,1.086,0,0,1-.768,1.855" transform="translate(-24.732 -18.667)" fill="#3e3a39"/>
    </g>
  </g>
</svg>
