<svg id="그룹_1610" data-name="그룹 1610" xmlns="http://www.w3.org/2000/svg" xmlns:xlink="http://www.w3.org/1999/xlink" width="45.971" height="40.432" viewBox="0 0 45.971 40.432">
  <defs>
    <clipPath id="clip-path">
      <rect id="사각형_1450" data-name="사각형 1450" width="45.971" height="40.432" fill="none"/>
    </clipPath>
  </defs>
  <g id="그룹_1609" data-name="그룹 1609" transform="translate(0 0)" clip-path="url(#clip-path)">
    <path id="패스_22656" data-name="패스 22656" d="M42.689,23.89a1.086,1.086,0,0,1-1.029-.739l-1.53-4.536L38.6,23.151a1.087,1.087,0,0,1-2.059,0L33.21,13.266a1.086,1.086,0,0,1,2.059-.694l2.3,6.831L39.1,14.867a1.086,1.086,0,0,1,2.059,0l1.53,4.536,2.3-6.831a1.086,1.086,0,1,1,2.059.694l-3.333,9.884a1.086,1.086,0,0,1-1.029.739" transform="translate(-17.145 -6.119)" fill="#3e3a39"/>
    <path id="패스_22657" data-name="패스 22657" d="M34.781,25.617H32.506a1.086,1.086,0,1,1,0-2.173h2.274a1.086,1.086,0,1,1,0,2.173" transform="translate(-16.249 -12.124)" fill="#3e3a39"/>
    <path id="패스_22658" data-name="패스 22658" d="M57.939,25.617H55.664a1.086,1.086,0,1,1,0-2.173h2.274a1.086,1.086,0,1,1,0,2.173" transform="translate(-28.225 -12.124)" fill="#3e3a39"/>
    <path id="패스_22659" data-name="패스 22659" d="M45.364,35.382h-30.3A1.086,1.086,0,0,1,13.979,34.3V1.763a1.086,1.086,0,0,1,1.508-1l.764.322,2.371-1a1.082,1.082,0,0,1,.843,0l2.371,1,2.371-1a1.082,1.082,0,0,1,.843,0l2.37,1,2.37-1a1.083,1.083,0,0,1,.844,0l2.37,1,2.371-1a1.084,1.084,0,0,1,.843,0l2.373,1,2.371-1a1.084,1.084,0,0,1,.843,0l2.373,1,.766-.323a1.086,1.086,0,0,1,1.508,1V34.3a1.087,1.087,0,0,1-1.086,1.086M16.152,33.21H44.278V3.345a1.088,1.088,0,0,1-.523-.08l-2.373-1-2.371,1a1.086,1.086,0,0,1-.844,0l-2.372-1-2.372,1a1.077,1.077,0,0,1-.843,0l-2.371-1-2.37,1a1.079,1.079,0,0,1-.844,0l-2.37-1-2.371,1a1.078,1.078,0,0,1-.843,0l-2.371-1-2.371,1a1.057,1.057,0,0,1-.52.081Z" transform="translate(-7.229 0)" fill="#3e3a39"/>
    <path id="패스_22660" data-name="패스 22660" d="M45.188,70.952H9.906a1.086,1.086,0,1,1,0-2.173H45.188a1.086,1.086,0,1,1,0,2.173" transform="translate(-4.561 -35.569)" fill="#3e3a39"/>
    <path id="패스_22661" data-name="패스 22661" d="M44.885,71.515H1.086A1.086,1.086,0,0,1,0,70.429V61.19A1.086,1.086,0,0,1,1.086,60.1H7.24a1.086,1.086,0,1,1,0,2.173H2.173v7.065H43.8V62.277H41.441a1.086,1.086,0,0,1,0-2.173h3.444a1.087,1.087,0,0,1,1.086,1.086v9.238a1.087,1.087,0,0,1-1.086,1.086" transform="translate(0 -31.083)" fill="#3e3a39"/>
    <line id="선_663" data-name="선 663" x2="14.421" transform="translate(15.775 22.727)" fill="#ff8282"/>
    <path id="패스_22662" data-name="패스 22662" d="M45.928,46.992H31.507a1.086,1.086,0,1,1,0-2.173H45.928a1.086,1.086,0,1,1,0,2.173" transform="translate(-15.732 -23.178)" fill="#ed5351"/>
    <line id="선_664" data-name="선 664" x2="14.421" transform="translate(15.775 28.024)" fill="#ff8282"/>
    <path id="패스_22663" data-name="패스 22663" d="M45.928,57.963H31.507a1.086,1.086,0,1,1,0-2.173H45.928a1.086,1.086,0,1,1,0,2.173" transform="translate(-15.732 -28.852)" fill="#ed5351"/>
  </g>
</svg>
