<svg id="그룹_1632" data-name="그룹 1632" xmlns="http://www.w3.org/2000/svg" width="40.963" height="40.963" viewBox="0 0 40.963 40.963">
  <g id="그룹_1613" data-name="그룹 1613" transform="translate(0 0)">
    <path id="패스_22664" data-name="패스 22664" d="M20.482,40.963A20.482,20.482,0,1,1,40.963,20.482,20.5,20.5,0,0,1,20.482,40.963m0-39.027A18.545,18.545,0,1,0,39.027,20.482,18.567,18.567,0,0,0,20.482,1.936" transform="translate(0 0)" fill="#3e3a39"/>
    <path id="패스_22666" data-name="패스 22666" d="M25.973,42.308A16.335,16.335,0,1,1,37.524,14.423a.968.968,0,1,1-1.369,1.369,14.4,14.4,0,1,0,4.217,10.182.968.968,0,1,1,1.936,0A16.354,16.354,0,0,1,25.973,42.308" transform="translate(-5.491 -5.491)" fill="#3e3a39"/>
    <path id="패스_22667" data-name="패스 22667" d="M76.843,26.755a.921.921,0,1,0-.922.922.921.921,0,0,0,.922-.922" transform="translate(-42.732 -14.719)" fill="#3e3a39"/>
    <path id="패스_22668" data-name="패스 22668" d="M41.186,45.946a.961.961,0,0,1-.535-.162,3.7,3.7,0,1,1,5.132-1.033.969.969,0,0,1-1.613-1.073,1.766,1.766,0,1,0-2.448.493.968.968,0,0,1-.537,1.774" transform="translate(-22.219 -22.22)" fill="#3e3a39"/>
    <path id="패스_22669" data-name="패스 22669" d="M45.757,31.814a.968.968,0,0,1-.968-.968V25.791a.774.774,0,1,0-1.549,0v5.055a.968.968,0,1,1-1.936,0V25.791a2.711,2.711,0,1,1,5.421,0v5.055a.968.968,0,0,1-.968.968" transform="translate(-23.533 -13.15)" fill="#3e3a39"/>
    <path id="패스_22670" data-name="패스 22670" d="M28.958,47.292h-8.39a.968.968,0,0,1,0-1.936h8.39a.968.968,0,0,1,0,1.936" transform="translate(-11.167 -25.842)" fill="#3e3a39"/>
    <path id="패스_22671" data-name="패스 22671" d="M39.995,40.963a.966.966,0,0,1-.685-.284L.283,1.652A.968.968,0,0,1,1.652.283L40.679,39.31a.968.968,0,0,1-.685,1.653" transform="translate(0 0)" fill="#ed5351"/>
  </g>
</svg>
