<svg id="그룹_1907" data-name="그룹 1907" xmlns="http://www.w3.org/2000/svg" xmlns:xlink="http://www.w3.org/1999/xlink" width="23.699" height="27.361" viewBox="0 0 23.699 27.361">
  <defs>
    <clipPath id="clip-path">
      <rect id="사각형_1919" data-name="사각형 1919" width="23.699" height="27.361" fill="none"/>
    </clipPath>
  </defs>
  <g id="그룹_1906" data-name="그룹 1906" clip-path="url(#clip-path)">
    <path id="패스_23093" data-name="패스 23093" d="M5.879,31.44a1.815,1.815,0,1,1-3.629,0v-7.5a1.815,1.815,0,0,1,1.815-1.815h13.71V25.7H11.883Z" transform="translate(-1.656 -16.287)" fill="#fff"/>
    <path id="패스_23094" data-name="패스 23094" d="M2.408,32.191A2.411,2.411,0,0,1,0,29.782v-7.5a2.411,2.411,0,0,1,2.408-2.409h13.71a.594.594,0,0,1,.594.594v3.572a.594.594,0,0,1-.594.594H10.465L4.8,30.05a2.412,2.412,0,0,1-2.394,2.141m0-11.131a1.223,1.223,0,0,0-1.221,1.221v7.5a1.221,1.221,0,0,0,2.442,0,.594.594,0,0,1,.183-.429l6-5.744a.594.594,0,0,1,.41-.165h5.3V21.06Z" transform="translate(0 -14.63)" fill="#595757"/>
    <path id="패스_23095" data-name="패스 23095" d="M17.827,35.423V51.091a1.754,1.754,0,0,1-3.509,0v0a1.754,1.754,0,0,1-3.508,0V35.423" transform="translate(-7.958 -26.078)" fill="#fff"/>
    <path id="패스_23096" data-name="패스 23096" d="M14.417,51.782a2.343,2.343,0,0,1-1.754-.789,2.347,2.347,0,0,1-4.1-1.559V33.767a.594.594,0,0,1,1.187,0V49.435a1.161,1.161,0,0,0,2.321,0V41.872a.594.594,0,0,1,1.187,0v7.562a1.161,1.161,0,0,0,2.322,0V33.767a.594.594,0,0,1,1.187,0V49.435a2.35,2.35,0,0,1-2.348,2.348" transform="translate(-6.303 -24.422)" fill="#595757"/>
    <path id="패스_23097" data-name="패스 23097" d="M18.235,5.275A3.025,3.025,0,1,0,15.211,8.3a3.025,3.025,0,0,0,3.025-3.025" transform="translate(-8.971 -1.656)" fill="#fff"/>
    <path id="패스_23098" data-name="패스 23098" d="M13.554,7.237a3.618,3.618,0,1,1,3.618-3.618,3.622,3.622,0,0,1-3.618,3.618m0-6.049a2.431,2.431,0,1,0,2.431,2.431,2.434,2.434,0,0,0-2.431-2.431" transform="translate(-7.315)" fill="#595757"/>
    <path id="패스_23099" data-name="패스 23099" d="M48.838,22.123H40.793A1.694,1.694,0,0,0,39.1,23.817v4.356H37.42V31.56h3.373a1.694,1.694,0,0,0,1.694-1.694l4.537,1.573a1.815,1.815,0,1,0,3.63,0v-7.5a1.815,1.815,0,0,0-1.815-1.815" transform="translate(-27.548 -16.287)" fill="#fff"/>
    <path id="패스_23100" data-name="패스 23100" d="M47.182,32.191a2.413,2.413,0,0,1-2.369-1.972L41.285,29a2.292,2.292,0,0,1-2.148,1.5H35.764a.593.593,0,0,1-.594-.594V26.516a.594.594,0,0,1,.594-.594h1.085V22.16a2.29,2.29,0,0,1,2.287-2.287h8.046a2.411,2.411,0,0,1,2.408,2.409v7.5a2.411,2.411,0,0,1-2.408,2.408M40.83,27.616a.6.6,0,0,1,.194.033l4.537,1.573a.593.593,0,0,1,.4.561,1.221,1.221,0,0,0,2.442,0v-7.5a1.223,1.223,0,0,0-1.221-1.221H39.136a1.1,1.1,0,0,0-1.1,1.1v4.356a.593.593,0,0,1-.594.594H36.357v2.2h2.779a1.1,1.1,0,0,0,1.1-1.1.594.594,0,0,1,.594-.594" transform="translate(-25.892 -14.63)" fill="#ed5351"/>
    <path id="패스_23101" data-name="패스 23101" d="M52.422,35.423V51.091a1.754,1.754,0,0,0,3.509,0v0a1.754,1.754,0,0,0,3.508,0V35.423" transform="translate(-38.593 -26.078)" fill="#fff"/>
    <path id="패스_23102" data-name="패스 23102" d="M56.028,51.782a2.342,2.342,0,0,1-1.754-.789,2.347,2.347,0,0,1-4.1-1.559V33.767a.594.594,0,0,1,1.187,0V49.435a1.161,1.161,0,0,0,2.322,0V41.872a.594.594,0,0,1,1.187,0v7.562a1.161,1.161,0,0,0,2.321,0V33.767a.594.594,0,0,1,1.187,0V49.435a2.35,2.35,0,0,1-2.348,2.348" transform="translate(-36.936 -24.422)" fill="#ed5351"/>
    <path id="패스_23103" data-name="패스 23103" d="M54.715,5.275A3.025,3.025,0,1,1,57.74,8.3a3.025,3.025,0,0,1-3.025-3.025" transform="translate(-40.281 -1.656)" fill="#fff"/>
    <path id="패스_23104" data-name="패스 23104" d="M56.083,7.237A3.618,3.618,0,1,1,59.7,3.618a3.622,3.622,0,0,1-3.618,3.618m0-6.049a2.431,2.431,0,1,0,2.431,2.431,2.434,2.434,0,0,0-2.431-2.431" transform="translate(-38.624)" fill="#ed5351"/>
  </g>
</svg>
