<svg xmlns="http://www.w3.org/2000/svg" width="646.697" height="128.124" viewBox="0 0 646.697 128.124">
  <g id="그룹_468" data-name="그룹 468" transform="translate(4824.508 287.398)">
    <g id="그룹_459" data-name="그룹 459" transform="translate(-4824.508 -223.681)">
      <g id="그룹_70" data-name="그룹 70">
        <path id="패스_185" data-name="패스 185" d="M384.617,324.281h-3.223v3.129h3.223Zm1.695-1.668v3.129h3.218v-3.129Zm-6.7,3.244h-3.223v3.123h3.223Zm-4.038.789h-3.223v3.126h3.223Zm-3.9,7.055h3.215v-3.123h-3.038v-3.129h-3.215v3.129h3.038Zm6.93,2.758h3.22v-3.126h-3.22Zm4.642-.806h3.223v-3.129h-3.223Zm-5.081,4.614h3.226v-3.126h-3.226Zm3.721-.309h3.22v-3.126h-3.22ZM384,328.778h-3.22V331.9H384Zm-8.422,4.3h3.218v-3.123h-3.218Zm-.874,4h3.218v-3.132H374.7Zm10.676-5.875H388.6v-3.129h-3.221Zm-10.858,3.053H371.3v-3.123h-3.229v-3.126h-16.1v12.506h9.7V378.34h12.843V340.515h3.223v-3.129h-3.223Z" transform="translate(-318.242 -322.613)" fill="#fff"/>
        <path id="패스_186" data-name="패스 186" d="M339.969,362.081h8.284c5.305,0,6.75-1.286,6.75-5.608V324.561h13.2v29.788c0,19.408-7.357,20.464-28.233,20.464Z" transform="translate(-339.969 -319.087)" fill="#fff"/>
        <path id="패스_187" data-name="패스 187" d="M384.223,324.544H365.37v50.3h13.2v-13.77h5.5c11.381,0,18.125-7.58,18.125-18.645C402.194,331.82,394.081,324.544,384.223,324.544Zm-5.657,24.236V336.822h4.892A5.4,5.4,0,0,1,389,342.43C389,347.831,385.994,348.721,378.566,348.78Z" transform="translate(-293.99 -319.118)" fill="#fff"/>
      </g>
    </g>
    <g id="그룹_460" data-name="그룹 460" transform="translate(-4658.392 -218.712)">
      <path id="패스_1492" data-name="패스 1492" d="M-522.246,348.824V328.641h-10.635v50.75h10.635V348.824Z" transform="translate(642.585 -328.633)" fill="#fff"/>
      <path id="패스_1493" data-name="패스 1493" d="M-463.1,333.6a11.672,11.672,0,0,0-3.447-4.017,5.816,5.816,0,0,0-3.6-.918,6.051,6.051,0,0,0-3.312,1.074,12.023,12.023,0,0,0-3.32,3.852L-504,379.391h11.234l8.54-14.168h28.048l8.489,14.168h11.252Zm-15.821,22.823,8.8-14.584,8.732,14.584Z" transform="translate(624.34 -328.634)" fill="#fff"/>
      <g id="그룹_446" data-name="그룹 446">
        <path id="패스_1494" data-name="패스 1494" d="M-719.193,342.361a12.691,12.691,0,0,0-4.333-9.889,15.409,15.409,0,0,0-10.543-3.853h-35.605a30.648,30.648,0,0,1-3.685,11.112c-4,6.505-9.491,8.064-10.822,8.355a42.776,42.776,0,0,0-11.906-2.032c-.3-.017-.549-.022-.748-.021a33.724,33.724,0,0,0-7.885.578V328.628h-10.632v19.363a26.1,26.1,0,0,1,7.777-.771,43.158,43.158,0,0,0-4.254,1.292,60.19,60.19,0,0,0-6.718,2.941c5.688-1.2,15.533-2.3,24.965,1.31.05.019.1.041.147.06a45.459,45.459,0,0,1,5,2.389,41.529,41.529,0,0,1,6.837,4.738l.221.2-.064-.065A36.9,36.9,0,0,1-769.86,377.82a10.535,10.535,0,0,1,.262,1.549l7.736,0v0h27.793a15.373,15.373,0,0,0,10.543-3.855,12.688,12.688,0,0,0,4.333-9.888,28.2,28.2,0,0,0-.528-6.294,12.658,12.658,0,0,0-3.2-5.386,12.613,12.613,0,0,0,3.726-8.881Zm-75.428,3.831c6.332.817,21.645,5.415,24.426,27.865C-772.976,351.607-788.289,347.01-794.621,346.192Zm-1.21-.122h0Zm.274.021c.158.014.326.03.5.049C-795.232,346.121-795.4,346.105-795.557,346.092Zm.607.061c.105.012.214.025.325.04C-794.737,346.178-794.845,346.164-794.95,346.152Zm25,30.388c.032.4.058.805.082,1.217C-769.888,377.346-769.914,376.941-769.946,376.541Zm-.249-2.483c.049.393.093.793.134,1.2Q-770.122,374.648-770.2,374.057Zm.137,1.225q.061.6.108,1.21C-769.982,376.083-770.017,375.68-770.058,375.283Zm41.153-29.9c0,2.8-1.69,4.17-5.162,4.17h-12.091l-.061.014a4.485,4.485,0,0,0-4.654,4.43,4.485,4.485,0,0,0,4.715,4.434h12.091a6.234,6.234,0,0,1,3.625,1.081,3.5,3.5,0,0,1,1.537,3.036v3.077c0,2.96-1.732,4.466-5.152,4.466H-761.17a35.327,35.327,0,0,0-11.884-16.246c6.812-3.371,10.34-10.229,12.15-15.947h26.847c3.42,0,5.152,1.515,5.152,4.509Z" transform="translate(823.051 -328.619)" fill="#fff"/>
        <path id="패스_1495" data-name="패스 1495" d="M-801.161,393.657c-.048-.02-.1-.041-.147-.06a38.178,38.178,0,0,0-11.137-2.357h-.01q-.7-.046-1.388-.069l-.117,0q-1.4-.045-2.74-.01l-.1,0c-1.343.037-2.631.126-3.848.25l-.081.008c-.814.085-1.6.185-2.338.3h-.011a52.057,52.057,0,0,0-6.559,1.4c-.39.109-.723.207-.99.286l-.094.031a.233.233,0,0,0-.05.094.156.156,0,0,0,.012.111.034.034,0,0,1,0,.01c1.085,1.685,4.8,2.911,7.678,3.191v22.039h10.632V394.281a21.962,21.962,0,0,1,16.287,1.766l-.008,0,.008,0A45.251,45.251,0,0,0-801.161,393.657Z" transform="translate(830.776 -368.117)" fill="#fff"/>
      </g>
    </g>
    <g id="그룹_461" data-name="그룹 461" transform="translate(-4412.581 -229.666)">
      <path id="패스_1496" data-name="패스 1496" d="M235.905,225.63h-52.5s-9.237-1.246-10.38,20.485c0,0,.6-8.055,6.469-8.227h54.3s6.522.584,7.072-19.088C240.872,218.8,240.569,224.405,235.905,225.63Z" transform="translate(-153.618 -218.8)" fill="#fff"/>
      <path id="패스_1497" data-name="패스 1497" d="M172.508,280.986h53.1s8.152-1.657,1.655,19.436c0,0,.752-8.055-6.769-7.18H171.607s-9.938,1.1-2.706-21.012C168.9,272.23,168.751,280.986,172.508,280.986Z" transform="translate(-152.196 -230.03)" fill="#fff"/>
      <path id="패스_1498" data-name="패스 1498" d="M198.25,255.159h29.484l-2.858,11.907H195.694Z" transform="translate(-158.381 -226.442)" fill="#fff"/>
      <path id="패스_1499" data-name="패스 1499" d="M156.81,266.738a.934.934,0,0,0,.928.686v.494h-4.106v-.494c.848-.135.951-.156.951-.608,0-.062-.176-.711-.19-.766l-1.586-4.527-.116-.041-.938,4.7a2.635,2.635,0,0,0-.028.411c0,.709.468.788.966.827v.494h-4.239v-.494c.513-.1.924-.156,1.174-1.417l1.788-8.835a8.51,8.51,0,0,0,.16-1.061c0-.651-.16-.69-1.069-.868v-.492h4.547v.492c-.735.081-1.145.276-1.381,1.417l-.877,4.349.072.02c.911-1.042,1.8-2.084,2.671-3.188,1.246-1.573,1.246-1.828,1.246-2.044,0-.435-.25-.472-.823-.554v-.492h3.1v.492c-.528.1-.718.118-1.377.945l-3.17,3.9Z" transform="translate(-148.452 -226.356)" fill="#fff"/>
      <path id="패스_1500" data-name="패스 1500" d="M164.974,267.919h-4.34v-.494c.631-.118.94-.292,1.172-1.417l1.8-8.835s.147-.847.147-1.1c0-.631-.132-.651-1.073-.829v-.492h4.372v.492c-.556.1-.952.178-1.2,1.417l-1.671,8.262a12.53,12.53,0,0,0-.265,1.657c0,.668.31.806,1.056.844Z" transform="translate(-151.012 -226.356)" fill="#fff"/>
      <path id="패스_1501" data-name="패스 1501" d="M176.077,267.919h-8.126v-.494c.585-.135.924-.2,1.174-1.417l1.8-8.835a8.983,8.983,0,0,0,.146-1.1c0-.631-.16-.671-1.069-.829v-.492h7.92l-.631,3.74-.4-.1c0-1.458,0-3.012-2.773-3.012-.614,0-.732.317-.85.863l-.893,4.391c2.155.059,2.377-.494,3.005-2.086l.411.078L174.713,264l-.41-.1a6.736,6.736,0,0,0,.057-.788c0-1.434-.454-1.847-2.112-1.847l-.821,4.113c-.072.412-.22,1.022-.22,1.2,0,.433.131.709.952.709,1.76,0,3.4-.81,4.414-3.288l.367.1Z" transform="translate(-152.55 -226.356)" fill="#fff"/>
      <path id="패스_1502" data-name="패스 1502" d="M185.608,256.246c.074-.431.179-.863.661-.863.94,0,1.377.69,1.377,1.871s-.38,2.813-1.466,3.286a4.279,4.279,0,0,1-1.453.235Zm-3.256-1c.94.178,1.071.2,1.071.829,0,.254-.147,1.1-.147,1.1l-1.8,8.835c-.236,1.125-.543,1.3-1.174,1.417v.494h4.342v-.494c-.778-.058-1.059-.2-1.059-.864a9.257,9.257,0,0,1,.206-1.359l.807-3.8h.425l1.57,6.515h2.963v-.494c-.7-.1-.969-.135-1.29-1.417l-1.216-4.838a3.559,3.559,0,0,0,2.816-3.562c0-2.856-2.584-2.856-3.463-2.856h-4.049Z" transform="translate(-155.146 -226.356)" fill="#fff"/>
    </g>
    <g id="그룹_462" data-name="그룹 462" transform="translate(-4267.416 -287.398)">
      <g id="그룹_449" data-name="그룹 449">
        <path id="패스_1503" data-name="패스 1503" d="M353.747-448.693c-2.562,6.094-10.707,16.287-10.707,16.287-4.229,5.564-9.235,12.547-11,21.775-3.729,25.54,12.143,38.7,21.876,42.4-7.669-4.06-21.132-15.72-17.908-36.8,1.578-7.833,5.767-15.881,15.282-26.115,0,0,11.224-11.7,12.74-21.87,0,0,5.338-22.732-15.681-36.7,10.563,13.145,10.767,28.336,5.4,41.017" transform="translate(-325.523 489.71)" fill="#fff"/>
        <path id="패스_1504" data-name="패스 1504" d="M375.764-435.551c-3.321,7.951-12.026,15.921-12.026,15.921-13.74,13.254-15.505,21.114-15.505,21.114a33.514,33.514,0,0,0,3.353,27.947,29.476,29.476,0,0,0,18.044,13.058c-5.1-1.76-15.187-7.761-16.051-20.922-.584-7.9,3.843-17.894,16.634-27.96A70.814,70.814,0,0,0,381.669-418a38.514,38.514,0,0,0,7.234-17.314s1.752-8.954-2.361-20.208a43.878,43.878,0,0,0-11.4-17.16c9.736,18.786.621,37.134.621,37.134" transform="translate(-333.742 480.444)" fill="#fff"/>
        <path id="패스_1505" data-name="패스 1505" d="M436.282-352.171v-43.8H418.93v48.843c-.051,3.393-.347,7.181-.347,7.181-.6,5.784-1.8,7.935-1.8,7.935a27.107,27.107,0,0,1-10.226,12.457c-18.106,12.219-36.209,2.112-36.209,2.112,22.631,13.427,44.654,1.055,44.654,1.055,15.5-8.986,19.727-21.213,20.867-27.789a61.892,61.892,0,0,0,.409-7.991" transform="translate(-346.677 438.627)" fill="#fff"/>
        <path id="패스_1506" data-name="패스 1506" d="M338.557-351.83a39.268,39.268,0,0,1-14.575-20.06s-3.557-10.507-1.475-21.134a54.783,54.783,0,0,1,5.229-14.962,83.477,83.477,0,0,1,6.048-9.138,82.942,82.942,0,0,0,5.11-8s9.027-14.406-2.081-28.809c0,0,4.517,11.68-1.381,22.56,0,0-2.773,4.754-5.786,9.26,0,0-6.621,9.582-8.558,16.085a47.685,47.685,0,0,0-1.5,26.548s3.133,18.922,18.967,27.645" transform="translate(-318.405 470.236)" fill="#fff"/>
      </g>
      <g id="그룹_454" data-name="그룹 454" transform="translate(29.367 77.979)">
        <g id="그룹_450" data-name="그룹 450" transform="translate(7.771 33.227)">
          <path id="패스_1507" data-name="패스 1507" d="M400.962-239.148V-244.6h-1.07v-.743h2.157v6.192Z" transform="translate(-399.893 245.438)" fill="#fff"/>
          <path id="패스_1508" data-name="패스 1508" d="M411.176-243.564a1.61,1.61,0,0,0-.216-.945.794.794,0,0,0-.686-.3.739.739,0,0,0-.649.294,1.76,1.76,0,0,0-.2.957,1.707,1.707,0,0,0,.2.96.777.777,0,0,0,.674.273.776.776,0,0,0,.675-.295,1.7,1.7,0,0,0,.2-.947m-.2,1.622a1.546,1.546,0,0,1-.465.237,1.709,1.709,0,0,1-.521.075,1.579,1.579,0,0,1-1.247-.437,2.192,2.192,0,0,1-.382-1.453,2.188,2.188,0,0,1,.473-1.54,1.964,1.964,0,0,1,1.474-.5,1.871,1.871,0,0,1,1.447.525,2.293,2.293,0,0,1,.476,1.581,4.278,4.278,0,0,1-.395,1.738,14.265,14.265,0,0,1-1.556,2.445h-1.265c.551-.691.969-1.231,1.245-1.617s.518-.734.716-1.06" transform="translate(-404.503 245.556)" fill="#fff"/>
          <path id="패스_1509" data-name="패스 1509" d="M418.675-240.1a2.739,2.739,0,0,0,.561.214,2.476,2.476,0,0,0,.587.071,1.585,1.585,0,0,0,1.156-.381,1.508,1.508,0,0,0,.389-1.132.983.983,0,0,0-.4-.852,2.026,2.026,0,0,0-1.18-.284c-.211,0-.39.006-.541.02a4.4,4.4,0,0,0-.449.063l.572-2.961H422.4v.759h-2.114l-.338,1.511c.113-.016.215-.026.309-.035s.176-.008.245-.008a2.02,2.02,0,0,1,1.426.5,1.708,1.708,0,0,1,.539,1.32,2.073,2.073,0,0,1-.659,1.64,2.644,2.644,0,0,1-1.832.59,4.431,4.431,0,0,1-.821-.073,4.222,4.222,0,0,1-.777-.22Z" transform="translate(-409.955 245.438)" fill="#fff"/>
          <path id="패스_1510" data-name="패스 1510" d="M429.383-239.247l2.308-3.285a4.807,4.807,0,0,0,.459-.8,1.7,1.7,0,0,0,.149-.66.859.859,0,0,0-.191-.61.806.806,0,0,0-.605-.2.754.754,0,0,0-.643.262,1.586,1.586,0,0,0-.192.9v.215h-1.085a.534.534,0,0,1-.011-.12v-.192a1.687,1.687,0,0,1,.5-1.333,2.177,2.177,0,0,1,1.5-.447,2.234,2.234,0,0,1,1.417.406,1.364,1.364,0,0,1,.514,1.124,2.13,2.13,0,0,1-.2.866,5.492,5.492,0,0,1-.677,1.067l-1.563,2.025h2.261v.787Z" transform="translate(-415.943 245.537)" fill="#fff"/>
        </g>
        <g id="그룹_451" data-name="그룹 451" transform="translate(0 19.218)">
          <path id="패스_1511" data-name="패스 1511" d="M435.333-276.294v7.453a2.418,2.418,0,0,0,1.007,2.165,5.8,5.8,0,0,0,3.174.677,5.871,5.871,0,0,0,3.181-.677,2.422,2.422,0,0,0,1-2.165v-7.453h-2.12v7.566a1.212,1.212,0,0,1-.5,1.081,2.8,2.8,0,0,1-1.558.344,2.8,2.8,0,0,1-1.561-.344,1.208,1.208,0,0,1-.514-1.081v-7.566Z" transform="translate(-411.41 276.294)" fill="#fff"/>
          <path id="패스_1512" data-name="패스 1512" d="M385.109-265.975a3.856,3.856,0,0,0,2.5-.678,2.572,2.572,0,0,0,.813-2.092v-7.549h-2.141v7.587a1.413,1.413,0,0,1-.376,1.085,1.726,1.726,0,0,1-1.186.348,3.265,3.265,0,0,1-.9-.14,4.747,4.747,0,0,1-.975-.423v1.41a5.162,5.162,0,0,0,1.105.34,5.816,5.816,0,0,0,1.163.112" transform="translate(-382.841 276.294)" fill="#fff"/>
          <path id="패스_1513" data-name="패스 1513" d="M406.759-275.061v-1.233h-6.346v10.177h6.346v-1.277h-4.211v-3.44H406.4v-1.21h-3.853v-3.017Z" transform="translate(-392.405 276.294)" fill="#fff"/>
          <path id="패스_1514" data-name="패스 1514" d="M422.579-266.653a2.565,2.565,0,0,0,.811-2.092v-7.549h-2.133v7.587a1.416,1.416,0,0,1-.379,1.085,1.725,1.725,0,0,1-1.187.348,3.352,3.352,0,0,1-.906-.14,4.628,4.628,0,0,1-.976-.423v1.41a5.481,5.481,0,0,0,1.108.34,5.747,5.747,0,0,0,1.166.112,3.828,3.828,0,0,0,2.5-.678" transform="translate(-401.872 276.294)" fill="#fff"/>
        </g>
        <g id="그룹_453" data-name="그룹 453" transform="translate(4.397 0)">
          <path id="패스_1515" data-name="패스 1515" d="M405.433-299.989a3.972,3.972,0,0,0,1.849-.617l10.764.749v-13.892l-1.122-.068.5.787v12.586l-10.352-.664a3.445,3.445,0,0,1-1.8.594,3.452,3.452,0,0,1-1.8-.594l-10.347.664V-313.03l.494-.787-1.123.068v13.892l10.764-.749a3.946,3.946,0,0,0,1.845.617A2.71,2.71,0,0,0,405.433-299.989Z" transform="translate(-392.488 315.934)" fill="#fff"/>
          <g id="그룹_452" data-name="그룹 452" transform="translate(1.195 1.327)">
            <path id="패스_1516" data-name="패스 1516" d="M396.2-315.551c-.239.377-1.063,1.676-1.089,1.712v11.284c.241-.4,1.067-1.779,1.089-1.812Z" transform="translate(-395.109 315.551)" fill="#fff"/>
            <path id="패스_1517" data-name="패스 1517" d="M405.54-289.352l.029.029a2.4,2.4,0,0,0,1.226.572,2.383,2.383,0,0,0-1.206-1.783,7.487,7.487,0,0,0-3.407-.588c-.711,0-1.473.043-2.339.126-.839.085-1.722.209-2.623.371-.038.062-.994,1.659-1.141,1.9C396.4-288.747,405.54-289.352,405.54-289.352Z" transform="translate(-395.637 302.257)" fill="#fff"/>
            <path id="패스_1518" data-name="패스 1518" d="M444.645-313.839c-.022-.036-.848-1.335-1.087-1.712v11.184c.021.033.846,1.413,1.087,1.812Z" transform="translate(-421.477 315.551)" fill="#fff"/>
            <path id="패스_1519" data-name="패스 1519" d="M422.664-290.536a2.388,2.388,0,0,0-1.207,1.783,2.4,2.4,0,0,0,1.227-.572l.03-.029s9.143.606,9.46.625c-.147-.241-1.1-1.838-1.138-1.9-.9-.162-1.786-.286-2.626-.371-.862-.083-1.628-.126-2.339-.126A7.49,7.49,0,0,0,422.664-290.536Z" transform="translate(-409.449 302.257)" fill="#fff"/>
          </g>
          <path id="패스_1520" data-name="패스 1520" d="M428.29-318.325a21.892,21.892,0,0,0-2.414-.137l-1.078.045-.823.123a4.363,4.363,0,0,0-1.5.582l-.117.091-.051.035a3.724,3.724,0,0,0-1.048,1.11v11.33a2.613,2.613,0,0,1,.572-.558,6.631,6.631,0,0,1,2.721-.854l.048,0,.052-.005a16.051,16.051,0,0,1,2.011-.07l1.492.1c.755.073,1.632.185,2.608.332v-11.726C429.918-318.1,429.084-318.239,428.29-318.325Zm1.086,2.51a5.408,5.408,0,0,1-3.155,3.052s.411.1,1.372,1.238a3.967,3.967,0,0,0,1.253,1.04s-1.355,2.675-1.489,2.989a5.926,5.926,0,0,1-1.673-2.641.477.477,0,0,0-.471-.247s-1.077.121-1.516.156a.4.4,0,0,1-.437,0l-.16-.168s-.038.01-.1-.05a.358.358,0,0,1-.146-.257.28.28,0,0,1,.088-.229,15.875,15.875,0,0,0,2.13-1.685s-.018.063.081-.19a3.413,3.413,0,0,1-.86-.358s-.38-.259-.37-.6l.089-.007s0,.4.78.644a1.714,1.714,0,0,1-.255-.572.38.38,0,0,1,.109-.023s.219.66.594.674c0,0,.736-.451.792-.963,0,0-.3-.187-.429-.957l.1-.058s.122.728.484.708c0,0,.329-.008.53-.615a3.006,3.006,0,0,0,.16-1.012,3.611,3.611,0,0,0-.076-.493l.076-.122a2.271,2.271,0,0,1,.1.374,1.568,1.568,0,0,1,.289-.746l.067.038a1.33,1.33,0,0,0-.175.819,3.725,3.725,0,0,1-.241,1.31,5.469,5.469,0,0,1-1.221,1.823,10.867,10.867,0,0,0,1.493-.73s.445-.275.5-1.227h.115a2.012,2.012,0,0,1-.014.774,3.262,3.262,0,0,0,1.363-1.664,1.029,1.029,0,0,0-.03-.677l.05-.063a1.194,1.194,0,0,1,.163.468.855.855,0,0,1,.508-.464l.029.069A1.259,1.259,0,0,0,429.376-315.815Z" transform="translate(-408.148 318.462)" fill="#fff"/>
          <path id="패스_1521" data-name="패스 1521" d="M407.39-317.586l-.046-.035-.119-.09a4.333,4.333,0,0,0-1.494-.582l-.829-.123-1.072-.045a21.785,21.785,0,0,0-2.414.137c-.8.087-1.633.221-2.48.4V-306.2c.977-.146,1.855-.258,2.606-.332l1.5-.1a15.827,15.827,0,0,1,2,.07l.062.005.056,0a6.59,6.59,0,0,1,2.714.857,2.514,2.514,0,0,1,.571.554v-11.33A3.719,3.719,0,0,0,407.39-317.586Zm-1.5,9.458H401.7c.639-1.787-.649-5.025-.649-5.025.878-.989,1.993-2.448,2.485-3.1v3.926a.667.667,0,0,0-.415.613.662.662,0,0,0,.66.664.661.661,0,0,0,.661-.664.661.661,0,0,0-.416-.613v-3.958c.477.634,1.617,2.129,2.511,3.136C406.536-313.153,405.249-309.916,405.889-308.128Z" transform="translate(-395.998 318.462)" fill="#fff"/>
        </g>
      </g>
    </g>
  </g>
</svg>
