<svg xmlns="http://www.w3.org/2000/svg" width="614.616" height="142.169" viewBox="0 0 614.616 142.169">
  <path id="패스_1525" data-name="패스 1525" d="M650.524,913.745V865.031H632.087V845.2H628.55v-26.06H626.6v-2.719a.477.477,0,0,0,.409-.5v-.4a.475.475,0,0,0-.436-.5h-1.21v-1.057a.447.447,0,0,0-.41-.475H621.5V806.25a.084.084,0,0,0-.077-.089h-.061a.084.084,0,0,0-.077.089v7.236h-3.239a.448.448,0,0,0-.41.475v1.057H616a.475.475,0,0,0-.436.5v.4a.476.476,0,0,0,.436.5h.129v2.713h-8.163V845.2h-7.8v8.649H588.124v33.018h-1.431v11.257h-1.86V865.031h-3.471v-5.812h-4.58v-3.9a1.782,1.782,0,0,0-1.634-1.891h-2.372v-1.586a1.782,1.782,0,0,0-1.635-1.891h-3.3v-6.57h-.5v6.57h-2.515a1.782,1.782,0,0,0-1.635,1.891v1.586h-4.662a1.782,1.782,0,0,0-1.635,1.891v3.9h-3.578v5.813h-4.4v25.311h-2.576V878.588h-.573V865.031h-5.118V830.069a.536.536,0,0,0,.431-.55v-.446a.532.532,0,0,0-.487-.564h-2.3v-.021a.838.838,0,0,0-.769-.89h-.608a.838.838,0,0,0-.77.89v.021h-6.081v-1.887a1.342,1.342,0,0,0-1.231-1.424h-.973a1.342,1.342,0,0,0-1.23,1.424v1.887h-1.8a.531.531,0,0,0-.487.564v.446a.531.531,0,0,0,.487.564h.051v12.913h-1.86V829.55h-3.784V797.156h-1.948v-2.7h-5.563v-4.628h-3.589v-1.94H506.3v-7.636h-3.219v7.636H500.67v1.94h-4.078v-4.92h-3.811v4.92H491.69v7.328h-4.173v42.422H472.426v49.937h-2.79V839.577H466.1v-4.628H463.01c0-.022,0-.043,0-.066,0-1.966-2.626-3.559-5.867-3.559s-5.867,1.593-5.867,3.559c0,.023,0,.044.006.066h-1.879v4.628h-6.12V881H441.3v18.695h-1.288V881h-11.19V850.762h-2.782v-8.677H421.75V831.479h-.037l-.09-5.163-9.8,5.163h.037v19.283h-1.391v62.983h-3.058V819.33H403.2V808.064L388.317,819.33H383.88v-5.637H367.71v5.637h-2.861v40.458h-1.466v26.745h-1.074V859.788h-7.764v-6.625a1.782,1.782,0,0,0-1.634-1.891H350.9v-4.813a1.782,1.782,0,0,0-1.635-1.891h-4.673a1.782,1.782,0,0,0-1.634,1.891v4.813H328.275a1.782,1.782,0,0,0-1.635,1.891v6.625H316.032v5.242h-3.308V900.44h-1.718V865.031H308.18v-4.653h-1.574v-5.132h-8.729v5.132h-5.4V850.25a6.166,6.166,0,0,0,2.218-4.854c0-3.246-2.275-5.877-5.08-5.877s-5.08,2.631-5.08,5.877a6.169,6.169,0,0,0,2.218,4.854v10.128h-2.468v4.653h-4.549v48.714h-3.756V831.479h-4.933v-2.556H268.2v-7.449h-.483v7.449h-2.361v2.556h-2.522V816.053H255.95V800.626h-33.8V913.745h-4.381v-78.8H216.63V826.9l-7.406,4.386v3.667h-.751v-1.432h-8.586v1.432H196.6v51.833h-2.361V834.949h-2.291v-11.8h-.429v11.8H189.61v15.987h-6.258V876.95h-19.4v36.794H153.937v-52.22H143.043V845.809h.133a.671.671,0,0,0,.616-.712v-.563a.671.671,0,0,0-.616-.712h-3.325a9.432,9.432,0,0,0,1.2-4.657c0-4.7-3.292-8.505-7.352-8.505s-7.352,3.808-7.352,8.505a9.44,9.44,0,0,0,1.2,4.657H124.23a.671.671,0,0,0-.615.712v.563a.671.671,0,0,0,.615.712h.292v15.715H114.508v52.22h-8.762V869.237H98.862v-7.551a1.252,1.252,0,0,0,1-1.29v-1.031a1.231,1.231,0,0,0-1.129-1.306H81.383a1.231,1.231,0,0,0-1.128,1.306V860.4a1.235,1.235,0,0,0,1.083,1.3v7.541H71.951v44.507h-2V881.071l-6.439,4.47v28.2H61.365v-6.6H47.842v6.6H41.977v8.677H656.593v-8.677Z" transform="translate(-41.977 -780.252)" fill="#fff"/>
</svg>
