<svg xmlns="http://www.w3.org/2000/svg" width="424.853" height="146.189" viewBox="0 0 424.853 146.189">
  <g id="그룹_470" data-name="그룹 470" transform="translate(4709.426 -1715.01)">
    <path id="bx-recycle" d="M109.786,80.8l-4.815-8.671L94.618,77.89l4.809,8.653a5.805,5.805,0,0,1,.533,4.525,5.852,5.852,0,0,1-.616,1.392,5.923,5.923,0,0,1-2.055,2.085,5.792,5.792,0,0,1-3.038.811H67V83.511L43.31,101.278,67,119.046V107.2h27.25a17.972,17.972,0,0,0,4.8-.646,17.742,17.742,0,0,0,10.513-8.108,17.721,17.721,0,0,0,1.99-13.119A18.734,18.734,0,0,0,109.786,80.8ZM18.8,54.128,5.121,81.491a18.123,18.123,0,0,0-1.546,4.472A17.749,17.749,0,0,0,21.018,107.2H31.465V95.356H21.018a6.018,6.018,0,0,1-2.961-.77,5.769,5.769,0,0,1-2.091-2.067,5.923,5.923,0,0,1-.882-2.772A5.526,5.526,0,0,1,15.19,88.3a6.32,6.32,0,0,1,.527-1.516L29.078,60.057l9.47,5.467L35.007,36.129,7.775,47.761Zm75.431,11.4,3.542-29.4-9.7,5.6L71.236,11.42a17.472,17.472,0,0,0-11.33-8.641,19.112,19.112,0,0,0-4.572-.492,17.786,17.786,0,0,0-8.872,2.565,17.572,17.572,0,0,0-6.645,7.255l-4.335,8.671,10.6,5.3L50.412,17.4a6.271,6.271,0,0,1,.983-1.433,5.526,5.526,0,0,1,2.624-1.6,6.237,6.237,0,0,1,3.139-.065,5.7,5.7,0,0,1,3.731,2.872L77.816,47.655,67,53.9Z" transform="translate(-4396.61 1724.313)" fill="#fff"/>
    <path id="패스_1523" data-name="패스 1523" d="M937.42,429.406a6.762,6.762,0,0,1-2.774,2.081l-1.388.347s-1.041-4.856-2.081-4.163A9.345,9.345,0,0,0,928.4,430.1c-.694,1.041-.347,2.775-3.122,2.428s-3.816,1.041-3.816,1.041-2.081,1.041-3.122.347-1.735-2.428-2.775-2.081-1.734,1.041-2.775,1.388S910.71,436,910.71,436a6.913,6.913,0,0,0-3.469-.347c-1.734.347-.347-1.734-1.734.347s-2.081,2.081-3.469,2.081S901,439.813,901,439.813a4.8,4.8,0,0,1-2.428.694c-1.388,0-2.428,1.387-3.816,1.387a10.258,10.258,0,0,1-3.122-.694l-3.122,2.428s-3.121,0-3.815,1.041-1.734,2.081-2.775,1.387-.694-2.775-2.081-2.428a12.955,12.955,0,0,0-3.816,1.387c-2.081,1.041-1.387,2.775-2.775,2.775s-3.816-.694-5.2.347-3.122,1.734-4.51,2.775-1.734,2.429-3.122,1.735-2.428-1.734-3.815-1.041-3.122-1.041-3.469.347a9.771,9.771,0,0,0,.347,3.816,27.427,27.427,0,0,1-3.815,2.775c-1.388.694-4.163,3.122-5.55,3.469a34.483,34.483,0,0,0-3.815,1.387s-1.388-.347-2.081,1.735-.347,4.856-1.388,5.55-3.469,1.735-2.775,3.469,0,1.388-2.081,3.122-3.469,3.122-3.816,4.163-1.041,0-2.428.347a4.765,4.765,0,0,0-2.775,1.734c-1.041,1.041-1.041,2.775-2.081,4.163a18.329,18.329,0,0,1-3.816,3.122,27.981,27.981,0,0,0-4.51,2.081,10.046,10.046,0,0,0-3.468,3.122l-.347,2.428a5.417,5.417,0,0,0-2.775,2.081c-.694,1.387-1.388.694-1.388,3.122s.347,3.121.347,4.509-.347,3.122,0,4.51-1.388,2.428-.347,3.816a2.628,2.628,0,0,1,0,3.469c-.694,1.041-2.428,3.122-1.041,4.162s3.122.694,2.775,2.428.694,1.041,2.081,2.775-.346,2.775,1.735,4.856,3.469,0,3.816,2.081a2.743,2.743,0,0,0,1.734,2.428,3.634,3.634,0,0,0,2.428,2.081c1.734.347,3.122-1.388,4.163-.347s1.388,2.429,3.122,2.775,2.775,1.04,3.122,2.428.347,1.041,1.388,2.775a9.229,9.229,0,0,0,3.469,3.816c1.735,1.041,3.122,1.734,3.122,3.122s-1.04,2.082,1.388,3.469,3.122,1.734,4.856,1.387,3.469,1.041,3.816-1.041a16.9,16.9,0,0,0,.347-4.163c0-2.081-.347-3.469.347-5.2s.347-1.735,2.081-2.081,3.122,1.387,3.469-1.041,0-2.081,2.775-3.468.347-2.775,2.775-1.388-.346.694,2.428,1.388,3.122-.694,4.856.347a9.867,9.867,0,0,0,4.163,1.388c1.735.347,3.122,1.388,5.9.347s2.081,0,5.9-2.428,5.9-3.122,6.937-2.081,1.735,3.815,4.51,4.163,2.428-.694,4.856-1.734,4.163-1.041,4.51,0-.347,2.775,1.734,3.122,0,1.734,2.428,1.734,2.428-.347,5.2-1.734,1.735,0,4.162,0a11.371,11.371,0,0,0,4.856-1.388l2.429-2.081s.347.347,2.774.347-.347-1.041,2.429,0,2.081,1.734,4.163,1.387a36.85,36.85,0,0,0,4.856-1.041c1.041-.347,2.775-2.428,2.775-2.428a30.111,30.111,0,0,1,4.509,1.041c2.081.694.348,1.735,2.775,2.081s-.347,1.387,2.428.346,3.816-.693,4.51-2.428-.694-2.428,2.428-3.469,3.469.347,4.857-1.734,0-3.816,3.122-5.2,3.815.694,4.856-.347-.347-1.388,2.429-.347.346,1.734,4.162,1.041,5.9-1.387,7.978-1.734a42,42,0,0,0,4.857-1.041c2.775-.694.348.347,2.775-.694s1.735-.694,4.163-.694,1.734,0,2.774-1.735,1.041-2.428,2.428-2.428a3.3,3.3,0,0,0,3.469-2.081,7.24,7.24,0,0,1,2.774-3.469,3.8,3.8,0,0,1,3.816-.347c1.041.694,1.041,1.388,2.428.694s2.429-2.081,3.122-1.041,1.735,1.041,3.122,0-1.387-2.081,1.388-1.041,4.509,1.387,4.856.347,1.042-1.04,2.429-1.387a3.883,3.883,0,0,0,2.774-2.428c.694-1.388,2.081-4.163,1.041-4.163s-1.734.694-2.774,1.388-2.081-1.735-2.081-1.735-.348.347,1.734-.694,2.082-2.081,3.469-2.428,2.08,0,2.428-2.081,2.081-2.428,2.775-4.163,0-4.856,0-4.856,3.121-1.04,2.428-2.775,1.041-2.428,3.122-4.163a14.51,14.51,0,0,1,4.162-2.775c2.081-1.041,4.163-1.387,3.469-4.163s.694-3.469,1.041-4.509,1.735-2.428,1.735-4.163-.348-4.163,1.041-4.51,2.775.347,1.735,1.388-.348,2.428,1.387,2.775,2.429,0,2.775-1.734-.348-4.163-1.735-4.163-3.122,1.387-2.428-2.081,1.04-4.51,2.428-5.2,2.775,0,2.775-2.081-1.041-3.469-1.041-4.857-2.775-1.387-2.775-1.387-2.428,3.122-3.469,2.775-.347-2.775-1.735-3.469-3.816-.347-3.122-2.081,2.774-.347,3.122-1.735a6.451,6.451,0,0,0,0-2.775s.347,1.041.694-2.775-1.735-2.775-3.47-3.816-1.735-1.387-.346-3.122.346-1.387-1.735-2.428-2.08-2.081-4.856-1.735-2.428.694-4.162,1.041-2.775,1.734-3.47.347a6.458,6.458,0,0,0-4.163-3.122c-1.734-.347-3.122-2.775-4.163-3.469s-.693-2.081-1.041-3.469,0-2.775-2.774-3.816-2.429,0-3.816.694-3.122,1.388-4.163,1.041a24.9,24.9,0,0,1-3.816-2.428s.694-1.735-2.081-1.041-5.2-1.387-5.9.347,1.734,1.04-.694,1.734-2.774.347-5.55.347-4.162-.694-5.551,0a13.469,13.469,0,0,0-3.122,2.775s-.347-1.388-2.774-1.041-3.122.694-5.551,1.041-3.815-1.734-5.2-.694,1.042,2.081-.693,3.122-2.4.99-3.469.347c-3.469-2.081-3.122-.694-3.469-2.081s-.694-1.734-1.735-1.734-1.734,1.041-2.774,2.081-2.429,2.081-1.735,3.122,2.776.347.694,1.041-2.082-.347-3.47-.347a19.763,19.763,0,0,0-4.509.347c-1.387.347-1.041.694-2.775.694a13.649,13.649,0,0,0-4.509,1.388s0,2.775-1.387,2.775-1.388.347-3.122,0S937.767,428.713,937.42,429.406Z" transform="translate(-5512.426 1300.882)" fill="#fff"/>
  </g>
</svg>
