<svg xmlns="http://www.w3.org/2000/svg" width="308.718" height="128.35" viewBox="0 0 308.718 128.35">
  <g id="그룹_471" data-name="그룹 471" transform="translate(-645.641 -330.049)">
    <g id="bx-box" transform="translate(837.752 350.053)">
      <path id="패스_1526" data-name="패스 1526" d="M105.147,3H13.461A11.461,11.461,0,0,0,2,14.461V25.921a11.461,11.461,0,0,0,5.73,9.856V94.686a11.461,11.461,0,0,0,11.461,11.461H99.416a11.461,11.461,0,0,0,11.461-11.461V35.778a11.461,11.461,0,0,0,5.73-9.856V14.461A11.461,11.461,0,0,0,105.147,3ZM13.461,14.461h91.686V25.921H13.461Zm5.73,80.225v-57.3H99.416v57.3Z" transform="translate(0 0)" fill="#fff"/>
      <path id="패스_1527" data-name="패스 1527" d="M8,11H53.843V22.461H8Z" transform="translate(28.382 37.843)" fill="#fff"/>
    </g>
    <path id="bxs-car-battery" d="M137.9,25.65H17.1A15.115,15.115,0,0,0,2,40.75v75.5a15.115,15.115,0,0,0,15.1,15.1H137.9a15.115,15.115,0,0,0,15.1-15.1V40.75A15.115,15.115,0,0,0,137.9,25.65ZM54.85,86.05H17.1V70.95H54.85Zm83.05,0H122.8v15.1H107.7V86.05H92.6V70.95h15.1V55.85h15.1v15.1h15.1ZM17.1,3H47.3V18.1H17.1Zm90.6,0h30.2V18.1H107.7Z" transform="translate(643.641 327.049)" fill="#fff"/>
  </g>
</svg>
