<svg xmlns="http://www.w3.org/2000/svg" width="324" height="128.35" viewBox="0 0 324 128.35">
  <g id="그룹_469" data-name="그룹 469" transform="translate(4654 -705.01)">
    <path id="bx-recycle" d="M99.838,73.474l-4.366-7.861-9.386,5.219,4.36,7.845a5.263,5.263,0,0,1,.483,4.1,5.305,5.305,0,0,1-.558,1.262,5.37,5.37,0,0,1-1.863,1.89,5.251,5.251,0,0,1-2.755.736H61.048V75.927L39.569,92.037l21.479,16.109V97.406H85.754a16.294,16.294,0,0,0,4.355-.585A16.085,16.085,0,0,0,99.64,89.47a16.066,16.066,0,0,0,1.8-11.894A16.985,16.985,0,0,0,99.838,73.474ZM17.349,49.288,4.945,74.1a16.431,16.431,0,0,0-1.4,4.054A16.092,16.092,0,0,0,19.357,97.406h9.472V86.667H19.357a5.456,5.456,0,0,1-2.685-.7,5.23,5.23,0,0,1-1.9-1.874,5.37,5.37,0,0,1-.8-2.513,5.01,5.01,0,0,1,.1-1.316,5.73,5.73,0,0,1,.478-1.375L26.665,54.663l8.586,4.956L32.04,32.97,7.351,43.516ZM85.738,59.625,88.949,32.97l-8.8,5.074L64.887,10.567A15.841,15.841,0,0,0,54.615,2.733a17.328,17.328,0,0,0-4.145-.446,16.125,16.125,0,0,0-8.044,2.325A15.932,15.932,0,0,0,36.4,11.19L32.47,19.052l9.606,4.806,3.931-7.867a5.685,5.685,0,0,1,.891-1.3,5.01,5.01,0,0,1,2.379-1.45,5.654,5.654,0,0,1,2.846-.059,5.171,5.171,0,0,1,3.383,2.6L70.853,43.419l-9.805,5.66Z" transform="translate(-4431.879 725.214)" fill="#fff"/>
    <path id="bxs-car-battery" d="M137.9,25.65H17.1A15.115,15.115,0,0,0,2,40.75v75.5a15.115,15.115,0,0,0,15.1,15.1H137.9a15.115,15.115,0,0,0,15.1-15.1V40.75A15.115,15.115,0,0,0,137.9,25.65ZM54.85,86.05H17.1V70.95H54.85Zm83.05,0H122.8v15.1H107.7V86.05H92.6V70.95h15.1V55.85h15.1v15.1h15.1ZM17.1,3H47.3V18.1H17.1Zm90.6,0h30.2V18.1H107.7Z" transform="translate(-4656 702.01)" fill="#fff"/>
  </g>
</svg>
