<svg xmlns="http://www.w3.org/2000/svg" width="292.314" height="32.257" viewBox="0 0 292.314 32.257">
  <g id="그룹_1174" data-name="그룹 1174" transform="translate(-400 -80)">
    <path id="패스_21375" data-name="패스 21375" d="M16.9-9.966v4.554h-2.64V-16.676H16.9v4.356h3.036v2.354Zm0,13.53H7.018A3.749,3.749,0,0,1,4.9,3.025a1.861,1.861,0,0,1-.8-1.661V-4.4H16.9Zm-2.64-2.332v-3.1H6.732V.612a.556.556,0,0,0,.638.62ZM1.738-15.84h9.79v2.266H4.422V-12.1h6.754v2.244H4.422v1.012a.562.562,0,0,0,.638.572h7.414v2.266H4.642A3.483,3.483,0,0,1,2.53-6.589a1.985,1.985,0,0,1-.792-1.7Zm20.108.792h2.64v8.536a2.365,2.365,0,0,0,.572,1.826,2.837,2.837,0,0,0,1.892.506,19.44,19.44,0,0,0,3.85-.34,12.045,12.045,0,0,0,3.058-1.043V-16.676H36.5v7.5h3.3v2.332H36.5V4h-2.64L33.876-3.2a12.835,12.835,0,0,1-3.074,1,20.763,20.763,0,0,1-4.087.355,7.369,7.369,0,0,1-1.95-.244,4.408,4.408,0,0,1-1.542-.744A3.4,3.4,0,0,1,22.21-4.11a4.268,4.268,0,0,1-.364-1.83Zm34.122,4.972a5.182,5.182,0,0,1-.376,1.991,5.392,5.392,0,0,1-1.039,1.628A5.62,5.62,0,0,1,53-5.28a6.583,6.583,0,0,1-1.956.638V-.836h8.052V1.5H40.348V-.836H48.4V-4.642a6.481,6.481,0,0,1-1.98-.649,5.4,5.4,0,0,1-1.54-1.188,5.445,5.445,0,0,1-1-1.628,5.281,5.281,0,0,1-.363-1.969A5.456,5.456,0,0,1,44-12.4a5.217,5.217,0,0,1,1.32-1.771,5.972,5.972,0,0,1,1.969-1.122,7.317,7.317,0,0,1,2.431-.4,7.257,7.257,0,0,1,2.508.418,6.044,6.044,0,0,1,1.98,1.166,5.222,5.222,0,0,1,1.3,1.782A5.438,5.438,0,0,1,55.968-10.076Zm-2.728,0a3.2,3.2,0,0,0-.935-2.431A3.6,3.6,0,0,0,49.72-13.4a3.469,3.469,0,0,0-2.6.9,3.317,3.317,0,0,0-.88,2.42,3.1,3.1,0,0,0,.935,2.387,3.585,3.585,0,0,0,2.541.869,3.627,3.627,0,0,0,2.618-.869A3.159,3.159,0,0,0,53.24-10.076Zm21.1-6.6h2.64V4h-2.64ZM65.393-1.76a4.756,4.756,0,0,1-3.01-.9A3.144,3.144,0,0,1,61.226-5.3v-9.68h2.64v4.62h4.708v-4.62h2.64V-1.76Zm3.181-6.27H63.866v2.376a1.86,1.86,0,0,0,.317,1.133,1.289,1.289,0,0,0,1.106.429h3.285Zm20.768-.946a8.138,8.138,0,0,1-1.221,1.76,10.151,10.151,0,0,1-1.65,1.463,12.1,12.1,0,0,1-1.936,1.122,11.72,11.72,0,0,1-2.079.737L81-5.742a13.063,13.063,0,0,0,2.387-.935A10.387,10.387,0,0,0,85.569-8.14a7.864,7.864,0,0,0,1.617-1.947,5.207,5.207,0,0,0,.7-2.409H82.3v-2.332h13.97V-12.5H90.706a5.124,5.124,0,0,0,.737,2.431,8.157,8.157,0,0,0,1.683,1.98,10.732,10.732,0,0,0,2.2,1.463,11.757,11.757,0,0,0,2.288.88L96.162-3.894A11.366,11.366,0,0,1,92.18-5.8,10.359,10.359,0,0,1,89.342-8.976Zm9.372,8.14V1.5H79.948V-.836ZM101.376-15h2.684v8.492a2.2,2.2,0,0,0,.649,1.826,3.178,3.178,0,0,0,1.969.506,22.185,22.185,0,0,0,4.026-.342,11.862,11.862,0,0,0,3.234-1.047V-16.676h2.64V4h-2.64V-3.178a12.861,12.861,0,0,1-3.267.981,24.331,24.331,0,0,1-4.279.349,7.731,7.731,0,0,1-1.969-.24,4.785,4.785,0,0,1-1.6-.73,3.407,3.407,0,0,1-1.067-1.256,4.013,4.013,0,0,1-.385-1.822ZM138.314-.836V1.5H119.548V-.836Zm-9.372-8.47a5.8,5.8,0,0,1-.671,1.144q-.385.506-.825,1.012a9.109,9.109,0,0,1-2.475,2.035,13.868,13.868,0,0,1-2.915,1.221L120.6-5.72a12.591,12.591,0,0,0,2.838-1.287,11.194,11.194,0,0,0,2.31-1.925,8.869,8.869,0,0,0,1.309-2.024,5.278,5.278,0,0,0,.473-2.222v-2.09h2.75v2.09a5.2,5.2,0,0,0,.506,2.3,8.224,8.224,0,0,0,1.3,1.925,10.3,10.3,0,0,0,2.4,2.013,12.281,12.281,0,0,0,2.728,1.2l-1.452,1.848a13.056,13.056,0,0,1-3-1.287A9.856,9.856,0,0,1,130.284-7.3q-.374-.462-.7-.957T128.942-9.306Z" transform="translate(554 103.257)" fill="#ed5351"/>
    <g id="그룹_8" data-name="그룹 8" transform="translate(400 80)">
      <g id="그룹_7" data-name="그룹 7" transform="translate(0)">
        <path id="패스_4" data-name="패스 4" d="M773.517,550.294c.034,7.825-4.153,13.681-10.344,15.087-7.68,1.744-14.595-1.314-17.706-7.829a14.636,14.636,0,0,1,4.5-18.268,52.637,52.637,0,0,0,4.593-3.705c1.989-1.938,6.925-2.869,8.611-.8,2.281,2.793,5.517,4.5,7.648,7.345C772.77,544.731,773.9,547.6,773.517,550.294Z" transform="translate(-630.905 -533.608)" fill="#ed5351"/>
        <path id="패스_5" data-name="패스 5" d="M683.473,556.686c0,1.7.048,3.4-.012,5.1-.042,1.193.52,2.769-1.7,2.766-1.969,0-3.465-.49-3.508-2.741-.058-3-.062-6.011-.037-9.016.022-2.625-.621-4.908-3.792-4.842-2.942.062-3.5,2.269-3.467,4.725.038,2.874.053,5.75-.012,8.623-.033,1.43.631,3.342-2.076,3.256-2.358-.073-3.311-1.18-3.253-3.446.073-2.873-.027-5.75.026-8.624.048-2.573-.861-4.542-3.7-4.533-2.956.009-3.537,2.123-3.459,4.642.1,3.133,0,6.272.031,9.407.013,1.386.067,2.664-1.971,2.556-1.7-.089-3.424-.26-3.463-2.349-.079-4.174-.352-8.413.242-12.514.733-5.056,6.547-7.594,12.388-5.534a7.734,7.734,0,0,0,5.488-.085c7.025-2.25,12.116,1.455,12.273,8.693C683.494,554.073,683.469,555.38,683.473,556.686Z" transform="translate(-612.492 -535.593)" fill="#363637"/>
        <path id="패스_6" data-name="패스 6" d="M736.409,553.462c-.007,8.96-3.512,12.544-11.343,11.457-3.274-.455-5.766-1.885-6.107-5.594-.346-3.759,1.4-5.942,5.02-6.837,1.669-.412,3.344-.81,4.995-1.286.864-.249,2.007-.465,1.942-1.617-.076-1.342-1.361-1.443-2.372-1.631-2.178-.406-3.978,1.5-6.182,1.046-.842-.175-2.059.487-2.444-.651-.315-.928.514-1.728,1.163-2.34,3.33-3.145,7.321-2.614,11.227-1.631,3.693.929,4.258,3.89,4.105,7.124C736.382,552.153,736.409,552.808,736.409,553.462Z" transform="translate(-625.838 -535.633)" fill="#363638"/>
        <path id="패스_7" data-name="패스 7" d="M646.035,553.5c0,1.044.013,2.088-.006,3.132-.055,3.018-.688,5.819-3.867,7.1-3.663,1.478-7.419,2.077-11.047-.156-2.217-1.365-2.4-3.562-2.312-5.869a4.719,4.719,0,0,1,3.491-4.7c2.253-.731,4.563-1.295,6.843-1.951.772-.223,1.66-.552,1.644-1.437-.019-1.12-1.129-1.3-1.985-1.6-1.966-.686-3.536.968-5.365.917-1.239-.034-3.082.773-3.585-.657-.515-1.465,1.008-2.652,2.26-3.309a12.5,12.5,0,0,1,11.106-.16c3.192,1.367,2.826,4.377,2.826,7.12C646.038,552.461,646.038,552.983,646.035,553.5Z" transform="translate(-607.605 -535.629)" fill="#363638"/>
        <path id="패스_8" data-name="패스 8" d="M711.737,556.755c0,1.7.034,3.393-.011,5.088-.033,1.216.452,2.759-1.738,2.75-1.954-.01-3.457-.466-3.484-2.743-.037-3.132-.018-6.264-.034-9.4-.013-2.521-.916-4.52-3.8-4.462-2.7.054-3.4,1.989-3.367,4.36.049,3.262-.026,6.525.022,9.787.022,1.5-.234,2.57-2.127,2.459-1.544-.092-3.173-.261-3.213-2.13a95.641,95.641,0,0,1,.2-13.282c.451-3.795,4.871-5.885,10.133-5.49,4.218.317,6.84,2.54,7.211,6.411.21,2.2.037,4.43.037,6.647Z" transform="translate(-620.769 -535.639)" fill="#363638"/>
        <path id="패스_9" data-name="패스 9" d="M615.525,554.689c0,2.341.01,4.683,0,7.025-.009,1.39.375,3.007-1.993,2.914-1.946-.077-3.419-.6-3.441-2.833-.031-3.122-.176-6.255.028-9.364.169-2.578-.424-3.967-3.377-3.536a6.434,6.434,0,0,1-2.734-.261c-1.74-.536-1.8-2.033-1.764-3.508.037-1.694,1.378-1.306,2.319-1.287C617.728,544.1,615.244,541.572,615.525,554.689Z" transform="translate(-602.234 -535.668)" fill="#373739"/>
        <path id="패스_10" data-name="패스 10" d="M623.009,548.789c-2.017.33-2.9-.329-3.058-2.635-.191-2.885,1.628-2.479,3.214-2.309,1.41.151,3.791-1.158,3.8,1.792C626.979,548.129,625.45,549.025,623.009,548.789Z" transform="translate(-605.815 -535.646)" fill="#ee5857"/>
        <path id="패스_11" data-name="패스 11" d="M749.709,552.917a10.108,10.108,0,0,1,10.321-10.194,10.341,10.341,0,1,1-.264,20.669A10.176,10.176,0,0,1,749.709,552.917Z" transform="translate(-632.067 -535.452)" fill="#fefdfd"/>
        <path id="패스_12" data-name="패스 12" d="M730.716,557.83c1.627-.366,1.8.4,1.75,1.466a4.106,4.106,0,0,1-4.136,4.307c-1.611.144-3.157-.5-3.06-2.23C725.468,557.826,728.977,558.846,730.716,557.83Z" transform="translate(-627.122 -538.489)" fill="#f9f9f9"/>
        <path id="패스_13" data-name="패스 13" d="M642.072,557.441c.416,3.206-.246,5.355-3.4,5.995-1.55.314-3.031.112-3.556-1.6s.519-2.752,2.073-3.226C638.7,558.149,640.264,557.865,642.072,557.441Z" transform="translate(-608.858 -538.429)" fill="#f9f9f9"/>
        <path id="패스_14" data-name="패스 14" d="M765.286,555.292c.245,2.374.253,4.532-3.115,4.477-2.257-.036-4.047-.561-3.5-3.285.538-2.689-.7-6.9,3.437-7.138C765.687,549.141,765.105,552.819,765.286,555.292Z" transform="translate(-633.86 -536.79)" fill="#3a3a3c"/>
        <path id="패스_15" data-name="패스 15" d="M754.109,552.614c.765-.038,1.288.28,1.324,1.063.032.7-.254,1.3-1.062,1.358a1.214,1.214,0,0,1-1.357-1.114C752.875,553.11,753.393,552.766,754.109,552.614Z" transform="translate(-632.731 -537.452)" fill="#4c4c4d"/>
        <path id="패스_16" data-name="패스 16" d="M771.863,553.811c-.217.6-.441,1.239-1.232,1.248a1.239,1.239,0,0,1-1.354-1.438,1.138,1.138,0,0,1,1.35-1.035C771.385,552.628,771.717,553.142,771.863,553.811Z" transform="translate(-636.025 -537.446)" fill="#545455"/>
      </g>
    </g>
  </g>
</svg>
