<svg xmlns="http://www.w3.org/2000/svg" xmlns:xlink="http://www.w3.org/1999/xlink" width="80.037" height="32.255" viewBox="0 0 80.037 32.255">
  <defs>
    <clipPath id="clip-path">
      <rect id="사각형_888" data-name="사각형 888" width="44.172" height="26.922" fill="none"/>
    </clipPath>
  </defs>
  <g id="그룹_1538" data-name="그룹 1538" transform="translate(-25.592 -106)">
    <g id="그룹_1506" data-name="그룹 1506" transform="translate(585.326 2781)">
      <path id="패스_21481" data-name="패스 21481" d="M142.607,16.685c.034,7.825-4.153,13.681-10.344,15.087-7.68,1.744-14.595-1.314-17.706-7.829a14.635,14.635,0,0,1,4.5-18.268,52.529,52.529,0,0,0,4.593-3.7c1.989-1.938,6.925-2.869,8.611-.8,2.281,2.793,5.517,4.5,7.648,7.345,1.951,2.607,3.081,5.476,2.7,8.17" transform="translate(-672.792 -2675)" fill="#ed5351"/>
      <path id="패스_21488" data-name="패스 21488" d="M117.638,17.464a10.108,10.108,0,0,1,10.019-10.2c.1,0,.2,0,.3,0a10.341,10.341,0,1,1,.42,20.678q-.342.006-.684-.009a10.176,10.176,0,0,1-10.061-10.29c0-.062,0-.123,0-.185" transform="translate(-672.792 -2675)" fill="#fefdfd"/>
      <path id="패스_21491" data-name="패스 21491" d="M131.422,18.5c.245,2.374.253,4.532-3.115,4.477-2.257-.036-4.047-.561-3.5-3.285.538-2.689-.7-6.9,3.437-7.138,3.579-.2,3,3.473,3.178,5.946" transform="translate(-672.792 -2675)" fill="#3a3a3c"/>
      <path id="패스_21492" data-name="패스 21492" d="M121.374,15.161c.765-.038,1.288.28,1.324,1.063.032.7-.254,1.3-1.062,1.358a1.214,1.214,0,0,1-1.352-1.059c0-.018,0-.037,0-.055-.139-.811.379-1.155,1.095-1.307" transform="translate(-672.792 -2675)" fill="#4c4c4d"/>
      <path id="패스_21493" data-name="패스 21493" d="M135.834,16.364c-.217.6-.441,1.239-1.232,1.248a1.24,1.24,0,0,1-1.354-1.438,1.138,1.138,0,0,1,1.218-1.052,1.193,1.193,0,0,1,.132.017c.758.042,1.09.556,1.236,1.225" transform="translate(-672.792 -2675)" fill="#545455"/>
    </g>
    <g id="그룹_1508" data-name="그룹 1508" transform="translate(61.458 109)">
      <g id="그룹_1507" data-name="그룹 1507" transform="translate(0 0)" clip-path="url(#clip-path)">
        <path id="패스_21497" data-name="패스 21497" d="M.021.479h5.61v1.3H1.559v.845h3.87V3.907H1.559v.58a.322.322,0,0,0,.366.327H6.173v1.3H1.685A1.993,1.993,0,0,1,.475,5.78,1.136,1.136,0,0,1,.021,4.8ZM8.707,11.6H3.047a2.148,2.148,0,0,1-1.216-.309,1.066,1.066,0,0,1-.461-.952v-3.3H8.707ZM7.194,10.261V8.484H2.883V9.905a.319.319,0,0,0,.366.356ZM8.707,3.845V6.454H7.194V0H8.707V2.5h1.74V3.845Z" transform="translate(-0.009 0)" fill="#ed5351"/>
        <path id="패스_21498" data-name="패스 21498" d="M20.129.933h1.513V5.824a1.357,1.357,0,0,0,.328,1.046,1.626,1.626,0,0,0,1.084.29,11.1,11.1,0,0,0,2.206-.2,6.884,6.884,0,0,0,1.753-.6V0h1.512V4.3h1.891V5.635H28.525V11.85H27.012l.01-4.13a7.366,7.366,0,0,1-1.761.573,11.887,11.887,0,0,1-2.342.2,4.223,4.223,0,0,1-1.117-.14,2.531,2.531,0,0,1-.884-.426,1.956,1.956,0,0,1-.581-.73,2.45,2.45,0,0,1-.208-1.049Z" transform="translate(-8.595 0)" fill="#ed5351"/>
        <path id="패스_21499" data-name="패스 21499" d="M47.581,4.2a2.972,2.972,0,0,1-.215,1.141,3.09,3.09,0,0,1-.6.933,3.206,3.206,0,0,1-.893.674,3.779,3.779,0,0,1-1.12.366V9.5h4.614v1.336H38.631V9.5h4.613V7.319a3.707,3.707,0,0,1-1.134-.372,3.059,3.059,0,0,1-1.456-1.614A3.026,3.026,0,0,1,40.446,4.2a3.124,3.124,0,0,1,.277-1.33A2.991,2.991,0,0,1,41.48,1.86a3.428,3.428,0,0,1,1.128-.643A4.189,4.189,0,0,1,44,.991a4.133,4.133,0,0,1,1.437.24,3.452,3.452,0,0,1,1.135.668,3,3,0,0,1,.744,1.021A3.124,3.124,0,0,1,47.581,4.2m-1.563,0a1.834,1.834,0,0,0-.536-1.393A2.063,2.063,0,0,0,44,2.3a1.987,1.987,0,0,0-1.487.517,1.9,1.9,0,0,0-.5,1.387,1.776,1.776,0,0,0,.535,1.368,2.054,2.054,0,0,0,1.456.5,2.078,2.078,0,0,0,1.5-.5A1.811,1.811,0,0,0,46.018,4.2" transform="translate(-16.495 -0.423)" fill="#ed5351"/>
        <path id="패스_21500" data-name="패스 21500" d="M2.388,34.851a2.724,2.724,0,0,1-1.725-.517A1.8,1.8,0,0,1,0,32.821V27.275H1.513v2.647h2.7V27.275H5.723v7.576ZM4.21,31.258h-2.7V32.62a1.067,1.067,0,0,0,.181.649.741.741,0,0,0,.634.246H4.21Zm3.3-4.954H9.026v11.85H7.513Z" transform="translate(0 -11.231)" fill="#ed5351"/>
        <path id="패스_21501" data-name="패스 21501" d="M29.475,37.505H18.722V36.169H29.475Zm-5.37-6a4.653,4.653,0,0,1-.7,1.008,5.821,5.821,0,0,1-.945.838,6.952,6.952,0,0,1-1.11.643,6.771,6.771,0,0,1-1.191.422l-.832-1.059a7.465,7.465,0,0,0,1.368-.535,5.981,5.981,0,0,0,1.249-.838,4.518,4.518,0,0,0,.926-1.116,2.99,2.99,0,0,0,.4-1.381h-3.2V28.151h8v1.336H24.886a2.924,2.924,0,0,0,.422,1.393,4.649,4.649,0,0,0,.964,1.135,6.159,6.159,0,0,0,1.26.838,6.717,6.717,0,0,0,1.312.5l-.833,1.059a6.523,6.523,0,0,1-2.281-1.09A5.939,5.939,0,0,1,24.1,31.5" transform="translate(-7.994 -12.02)" fill="#ed5351"/>
        <path id="패스_21502" data-name="패스 21502" d="M40.15,27.262h1.538v4.866a1.258,1.258,0,0,0,.372,1.046,1.823,1.823,0,0,0,1.129.29,12.692,12.692,0,0,0,2.306-.2,6.806,6.806,0,0,0,1.854-.6V26.3h1.512v11.85H47.349V34.038a7.372,7.372,0,0,1-1.873.563,13.973,13.973,0,0,1-2.452.2,4.424,4.424,0,0,1-1.128-.138,2.736,2.736,0,0,1-.914-.418,1.961,1.961,0,0,1-.611-.72,2.306,2.306,0,0,1-.221-1.045Z" transform="translate(-17.144 -11.231)" fill="#ed5351"/>
        <path id="패스_21503" data-name="패스 21503" d="M69.075,37.318H58.322V35.982H69.075Zm-5.37-6.19a3.322,3.322,0,0,1-.385.656q-.22.29-.472.579a5.22,5.22,0,0,1-1.419,1.166,7.924,7.924,0,0,1-1.67.7l-.831-1.046a7.26,7.26,0,0,0,1.626-.737,6.429,6.429,0,0,0,1.324-1.1,5.106,5.106,0,0,0,.75-1.16A3.028,3.028,0,0,0,62.9,28.91v-1.2h1.576v1.2a2.978,2.978,0,0,0,.29,1.317,4.689,4.689,0,0,0,.744,1.1,5.918,5.918,0,0,0,1.373,1.153,6.991,6.991,0,0,0,1.563.687l-.832,1.059a7.509,7.509,0,0,1-1.721-.737,5.641,5.641,0,0,1-1.418-1.216c-.143-.177-.278-.359-.4-.548s-.248-.389-.365-.6" transform="translate(-24.903 -11.833)" fill="#ed5351"/>
      </g>
    </g>
  </g>
</svg>
