<svg xmlns="http://www.w3.org/2000/svg" width="258.45" height="30.256" viewBox="0 0 258.45 30.256">
  <g id="그룹_1188" data-name="그룹 1188" transform="translate(-394.5 -43.319)">
    <g id="그룹_1172" data-name="그룹 1172" transform="translate(394.5 43.319)">
      <text id="탐나오비즈니스" transform="translate(144.45 19.868)" fill="#ed5351" font-size="18" font-family="GoyangDeogyangB-Regular, GoyangDeogyang B" letter-spacing="-0.02em"><tspan x="0" y="0">탐나오비즈니스</tspan></text>
      <g id="그룹_8" data-name="그룹 8" transform="translate(0)">
        <g id="그룹_7" data-name="그룹 7">
          <path id="패스_4" data-name="패스 4" d="M771.685,549.26c.032,7.339-3.9,12.833-9.7,14.151-7.2,1.636-13.69-1.232-16.608-7.343a13.728,13.728,0,0,1,4.219-17.136,49.365,49.365,0,0,0,4.308-3.476c1.865-1.818,6.5-2.691,8.077-.753,2.14,2.62,5.175,4.218,7.173,6.89C770.983,544.041,772.042,546.731,771.685,549.26Z" transform="translate(-637.916 -533.608)" fill="#ed5351"/>
          <path id="패스_5" data-name="패스 5" d="M681.579,555.864c0,1.594.045,3.188-.011,4.78-.039,1.119.488,2.6-1.6,2.594-1.847,0-3.25-.46-3.291-2.571-.055-2.818-.058-5.638-.035-8.457.021-2.462-.583-4.6-3.557-4.542-2.76.058-3.282,2.128-3.252,4.432.036,2.7.049,5.393-.011,8.089-.031,1.342.592,3.134-1.948,3.054-2.212-.069-3.106-1.107-3.051-3.232.068-2.7-.025-5.393.024-8.089.045-2.414-.807-4.26-3.472-4.252-2.773.008-3.318,1.991-3.244,4.354.091,2.938,0,5.883.029,8.824.012,1.3.063,2.5-1.849,2.4-1.592-.084-3.212-.244-3.248-2.2a72.836,72.836,0,0,1,.227-11.737c.688-4.742,6.141-7.123,11.62-5.191a7.254,7.254,0,0,0,5.148-.079c6.589-2.111,11.364,1.365,11.512,8.154C681.6,553.413,681.576,554.638,681.579,555.864Z" transform="translate(-615 -536.078)" fill="#363637"/>
          <path id="패스_6" data-name="패스 6" d="M735.324,552.852c-.006,8.4-3.294,11.766-10.639,10.746-3.071-.427-5.408-1.768-5.728-5.247-.325-3.526,1.311-5.574,4.709-6.413,1.566-.387,3.137-.759,4.685-1.206.81-.233,1.883-.436,1.822-1.517-.071-1.259-1.277-1.354-2.224-1.53-2.043-.381-3.732,1.408-5.8.981-.79-.164-1.931.456-2.292-.611-.3-.87.482-1.621,1.091-2.2,3.123-2.95,6.867-2.452,10.531-1.53,3.464.872,3.993,3.649,3.851,6.682C735.3,551.624,735.324,552.238,735.324,552.852Z" transform="translate(-631.61 -536.128)" fill="#363638"/>
          <path id="패스_7" data-name="패스 7" d="M644.966,552.89c0,.979.012,1.959-.006,2.938-.052,2.831-.645,5.458-3.627,6.662-3.436,1.386-6.958,1.948-10.362-.147-2.079-1.28-2.249-3.342-2.168-5.5a4.427,4.427,0,0,1,3.274-4.408c2.114-.685,4.28-1.214,6.418-1.83.724-.209,1.557-.518,1.542-1.348-.018-1.051-1.059-1.221-1.862-1.5-1.844-.643-3.317.908-5.032.86-1.162-.032-2.891.725-3.363-.616-.483-1.374.946-2.487,2.12-3.1a11.72,11.72,0,0,1,10.418-.15c2.994,1.282,2.651,4.106,2.65,6.679C644.969,551.911,644.969,552.4,644.966,552.89Z" transform="translate(-608.919 -536.123)" fill="#363638"/>
          <path id="패스_8" data-name="패스 8" d="M710.628,555.943c0,1.591.032,3.183-.01,4.773-.031,1.141.424,2.588-1.63,2.579-1.833-.009-3.243-.437-3.268-2.573-.034-2.938-.017-5.875-.032-8.813-.012-2.364-.859-4.24-3.561-4.186-2.531.051-3.192,1.866-3.158,4.089.046,3.06-.025,6.121.02,9.18.02,1.406-.22,2.411-1.995,2.306-1.448-.086-2.977-.245-3.014-2a89.722,89.722,0,0,1,.19-12.458c.423-3.559,4.569-5.52,9.5-5.149,3.956.3,6.416,2.382,6.763,6.014.2,2.061.035,4.156.035,6.235Z" transform="translate(-625.301 -536.136)" fill="#363638"/>
          <path id="패스_9" data-name="패스 9" d="M614.7,554.013c0,2.2.01,4.393,0,6.59-.008,1.3.352,2.821-1.869,2.733-1.826-.073-3.207-.559-3.228-2.657-.029-2.929-.165-5.867.026-8.783.159-2.418-.4-3.721-3.167-3.316a6.036,6.036,0,0,1-2.565-.245c-1.632-.5-1.686-1.907-1.654-3.29.035-1.589,1.293-1.225,2.175-1.208C616.767,544.082,614.437,541.71,614.7,554.013Z" transform="translate(-602.234 -536.171)" fill="#373739"/>
          <path id="패스_10" data-name="패스 10" d="M622.819,548.473c-1.892.31-2.724-.308-2.868-2.471-.18-2.706,1.527-2.326,3.015-2.165,1.322.141,3.556-1.086,3.568,1.681C626.543,547.853,625.108,548.694,622.819,548.473Z" transform="translate(-606.691 -536.145)" fill="#ee5857"/>
          <path id="패스_11" data-name="패스 11" d="M749.709,552.285a9.482,9.482,0,0,1,9.681-9.562,9.7,9.7,0,1,1-.248,19.387A9.545,9.545,0,0,1,749.709,552.285Z" transform="translate(-639.362 -535.903)" fill="#fefdfd"/>
          <path id="패스_12" data-name="패스 12" d="M730.378,557.825c1.526-.343,1.692.373,1.642,1.375a3.851,3.851,0,0,1-3.88,4.04c-1.511.135-2.961-.471-2.87-2.092C725.455,557.82,728.747,558.777,730.378,557.825Z" transform="translate(-633.209 -539.683)" fill="#f9f9f9"/>
          <path id="패스_13" data-name="패스 13" d="M641.632,557.441c.391,3.007-.231,5.023-3.188,5.623-1.454.295-2.843.106-3.336-1.5s.486-2.581,1.944-3.026C638.468,558.105,639.937,557.839,641.632,557.441Z" transform="translate(-610.478 -539.608)" fill="#f9f9f9"/>
          <path id="패스_14" data-name="패스 14" d="M764.87,554.923c.23,2.227.237,4.251-2.922,4.2-2.117-.034-3.8-.526-3.284-3.081.505-2.522-.659-6.472,3.224-6.7C765.246,549.153,764.7,552.6,764.87,554.923Z" transform="translate(-641.594 -537.568)" fill="#3a3a3c"/>
          <path id="패스_15" data-name="패스 15" d="M754.039,552.614c.717-.036,1.208.263,1.242,1,.03.656-.239,1.221-1,1.274a1.138,1.138,0,0,1-1.273-1.044C752.882,553.079,753.368,552.756,754.039,552.614Z" transform="translate(-640.189 -538.392)" fill="#4c4c4d"/>
          <path id="패스_16" data-name="패스 16" d="M771.7,553.735c-.2.564-.414,1.162-1.155,1.17a1.162,1.162,0,0,1-1.27-1.349,1.067,1.067,0,0,1,1.266-.971C771.254,552.625,771.566,553.107,771.7,553.735Z" transform="translate(-644.288 -538.385)" fill="#545455"/>
        </g>
      </g>
    </g>
  </g>
</svg>
