<svg xmlns="http://www.w3.org/2000/svg" xmlns:xlink="http://www.w3.org/1999/xlink" width="40.197" height="40.204" viewBox="0 0 40.197 40.204">
  <defs>
    <clipPath id="clip-path">
      <rect id="사각형_360" data-name="사각형 360" width="40.197" height="40.204" fill="none"/>
    </clipPath>
  </defs>
  <g id="그룹_1234" data-name="그룹 1234" transform="translate(0 0)">
    <g id="그룹_1233" data-name="그룹 1233" transform="translate(0 0)" clip-path="url(#clip-path)">
      <path id="패스_21387" data-name="패스 21387" d="M17.8,35.609A17.8,17.8,0,0,1,5.206,5.214a17.8,17.8,0,1,1,25.179,25.18A17.686,17.686,0,0,1,17.8,35.609M17.8,1.9A15.9,15.9,0,0,0,6.55,29.05,15.9,15.9,0,1,0,29.041,6.557,15.8,15.8,0,0,0,17.8,1.9" transform="translate(0 0)" fill="#3e3a39"/>
      <path id="패스_21388" data-name="패스 21388" d="M34.048,16.75a12.246,12.246,0,1,0,0,17.317,12.247,12.247,0,0,0,0-17.317" transform="translate(-7.593 -7.604)" fill="#ed5351"/>
      <path id="패스_21389" data-name="패스 21389" d="M72.307,76.462a4.124,4.124,0,0,1-2.924-1.208l-6.367-6.367a.95.95,0,0,1,1.344-1.343l6.367,6.367a2.234,2.234,0,1,0,3.159-3.159L67.52,64.383a.95.95,0,1,1,1.344-1.343l6.367,6.366a4.132,4.132,0,0,1-2.923,7.056" transform="translate(-36.244 -36.258)" fill="#3e3a39"/>
      <path id="패스_21390" data-name="패스 21390" d="M68.557,76.186a.95.95,0,0,1-.672-1.622l6.657-6.657a.95.95,0,0,1,1.344,1.344l-6.657,6.657a.948.948,0,0,1-.672.278" transform="translate(-39.057 -39.069)" fill="#3e3a39"/>
      <path id="패스_21391" data-name="패스 21391" d="M28.1,31.32a3.2,3.2,0,1,1,3.2-3.2,3.2,3.2,0,0,1-3.2,3.2m0-4.5a1.3,1.3,0,1,0,1.3,1.3,1.3,1.3,0,0,0-1.3-1.3" transform="translate(-14.384 -14.395)" fill="#fff"/>
      <path id="패스_21392" data-name="패스 21392" d="M47.422,50.642a3.2,3.2,0,1,1,3.2-3.2,3.2,3.2,0,0,1-3.2,3.2m0-4.5a1.3,1.3,0,1,0,1.3,1.3,1.3,1.3,0,0,0-1.3-1.3" transform="translate(-25.547 -25.558)" fill="#fff"/>
      <path id="패스_21393" data-name="패스 21393" d="M28.557,39.9a.95.95,0,0,1-.672-1.622L38.259,27.906A.95.95,0,0,1,39.6,29.249L29.229,39.623a.947.947,0,0,1-.672.278" transform="translate(-15.949 -15.961)" fill="#fff"/>
    </g>
  </g>
</svg>
