<svg xmlns="http://www.w3.org/2000/svg" xmlns:xlink="http://www.w3.org/1999/xlink" width="54.592" height="40.021" viewBox="0 0 54.592 40.021">
  <defs>
    <clipPath id="clip-path">
      <rect id="사각형_361" data-name="사각형 361" width="54.592" height="40.021" transform="translate(-2 -3)" fill="none"/>
    </clipPath>
  </defs>
  <g id="그룹_1237" data-name="그룹 1237" transform="translate(-163.205 -139)">
    <path id="패스_21394" data-name="패스 21394" d="M76.435,33.706H69.788v7.329H80.526Z" transform="translate(119.394 119.873)" fill="#ed5351"/>
    <path id="패스_21395" data-name="패스 21395" d="M34.193,33.706H40.84v7.329H30.1Z" transform="translate(145.445 119.873)" fill="#ed5351"/>
    <g id="그룹_1236" data-name="그룹 1236" transform="translate(165.205 142)">
      <g id="그룹_1235" data-name="그룹 1235" transform="translate(0 0)" clip-path="url(#clip-path)">
        <path id="패스_21396" data-name="패스 21396" d="M43.783,35.026H39.816l-5.537-9.591a4.18,4.18,0,0,0-3.619-2.09H17.025a4.18,4.18,0,0,0-3.62,2.09L7.868,35.026H3.9a1.9,1.9,0,0,0-1.9,1.9v5.856a1.9,1.9,0,0,0,1.9,1.9H43.783a1.9,1.9,0,0,0,1.9-1.9V36.926A1.9,1.9,0,0,0,43.783,35.026Z" transform="translate(-1.313 -15.324)" fill="none" stroke="#3e3a39" stroke-linecap="round" stroke-linejoin="round" stroke-width="2"/>
        <path id="패스_21397" data-name="패스 21397" d="M33.168,76.481a4.26,4.26,0,1,0-4.26,4.26,4.26,4.26,0,0,0,4.26-4.26" transform="translate(-16.18 -47.408)" fill="#ed5351"/>
        <circle id="타원_30" data-name="타원 30" cx="4.26" cy="4.26" r="4.26" transform="translate(8.469 24.813)" fill="none" stroke="#3e3a39" stroke-linecap="round" stroke-linejoin="round" stroke-width="2"/>
        <path id="패스_21399" data-name="패스 21399" d="M90.217,76.481a4.26,4.26,0,1,0-4.26,4.26,4.26,4.26,0,0,0,4.26-4.26" transform="translate(-53.628 -47.408)" fill="#ed5351"/>
        <circle id="타원_31" data-name="타원 31" cx="4.26" cy="4.26" r="4.26" transform="translate(28.069 24.813)" fill="none" stroke="#3e3a39" stroke-linecap="round" stroke-linejoin="round" stroke-width="2"/>
        <path id="패스_21401" data-name="패스 21401" d="M119.8,8.846a6.6,6.6,0,1,0-6.6,6.6,6.6,6.6,0,0,0,6.6-6.6" transform="translate(-69.979 -1.477)" fill="#ed5351"/>
        <path id="패스_21402" data-name="패스 21402" d="M111.725,14.738a7.369,7.369,0,1,1,7.369-7.369,7.377,7.377,0,0,1-7.369,7.369m0-13.192a5.823,5.823,0,1,0,5.823,5.823,5.829,5.829,0,0,0-5.823-5.823" transform="translate(-68.502 0)" fill="#ed5351"/>
        <path id="패스_21403" data-name="패스 21403" d="M116.1,21.327a.773.773,0,0,1-.547-.226l-2.841-2.842a.773.773,0,1,1,1.093-1.093l2.3,2.295,4.4-4.4a.773.773,0,0,1,1.093,1.093L116.647,21.1a.773.773,0,0,1-.547.226" transform="translate(-73.838 -9.738)" fill="#fff"/>
      </g>
    </g>
  </g>
</svg>
